<svg width="48" height="48" viewBox="0 0 48 48" fill="none" xmlns="http://www.w3.org/2000/svg">
<circle cx="24" cy="24" r="24" fill="#BC4F66" fill-opacity="0.35"/>
<g clip-path="url(#clip0_2335_221)">
<path d="M26.9865 15.9521C28.6635 15.919 30.386 16.1193 32.0853 16.5368C33.1033 16.787 33.4948 17.3121 33.4948 18.405C33.4948 18.6981 33.4948 18.9904 33.4948 19.2835C33.4941 19.7453 33.4928 19.7537 33.0349 19.701C31.8252 19.5619 30.7287 19.8795 29.7357 20.5887C28.0255 21.811 27.2276 23.9842 27.7173 26.0442C28.2186 28.1527 29.8725 29.6842 31.9363 29.9646C32.3434 30.0202 32.745 30.0413 33.1487 29.9583C33.3919 29.9084 33.5178 29.9857 33.4962 30.2627C33.4853 30.4025 33.4989 30.5438 33.4914 30.6844C33.4684 31.1117 33.2679 31.3858 32.8744 31.5081C32.3 31.6873 31.7101 31.7899 31.1174 31.8736C30.9515 31.8968 30.8113 31.9361 30.7334 32.109C29.9328 33.8865 28.5349 34.933 26.7766 35.4763C24.7832 36.092 22.754 36.1897 20.7288 35.6401C18.4321 35.0174 16.8532 33.4803 15.7777 31.3317C14.9012 29.5809 14.4772 27.6959 14.2327 25.7574C14.1257 24.9098 14.0634 24.058 14.0302 23.204C14.0228 23.0149 13.9733 22.9088 13.7654 22.8793C13.3475 22.8195 13.1314 22.582 13.1565 22.1462C13.1822 21.6992 13.0379 21.4054 12.7169 21.0948C11.6786 20.0897 11.2227 18.7754 11.0514 17.3458C10.8922 16.0153 11.0913 14.7488 11.81 13.6116C13.2032 11.4068 16.2741 11.4778 17.5786 13.7402C18.3372 15.0559 18.4585 16.4799 18.1686 17.9481C17.9071 19.2744 17.3694 20.4587 16.3412 21.3492C16.2078 21.4652 16.1461 21.5945 16.1543 21.7737C16.1617 21.9375 16.1671 22.1033 16.1468 22.265C16.1089 22.5644 15.9815 22.8301 15.6659 22.861C15.3611 22.8905 15.3286 23.0578 15.3408 23.3101C15.4417 25.3048 15.6869 27.2728 16.331 29.1683C16.6365 30.0673 17.0273 30.9233 17.5658 31.6993C18.8445 33.5414 20.5873 34.4973 22.7675 34.5908C24.1073 34.6484 25.4307 34.5472 26.7041 34.0671C27.5893 33.7333 28.3655 33.2265 28.9751 32.4696C29.0503 32.3761 29.1851 32.2714 29.114 32.1407C29.055 32.0317 28.9053 32.09 28.7983 32.0957C26.9046 32.1906 25.0365 32.0064 23.1949 31.5376C23.0513 31.5011 22.8861 31.4765 22.8014 31.3521C22.5752 31.0196 22.2399 30.9571 21.8925 30.8924C21.6825 30.853 21.4732 30.7947 21.272 30.7202C20.6672 30.496 20.2628 29.94 20.2615 29.2808C20.2547 25.5445 20.254 21.8074 20.2622 18.0711C20.2635 17.3711 20.7356 16.787 21.4183 16.6057C23.2213 16.1271 25.0569 15.9246 26.9852 15.9535L26.9865 15.9521ZM29.5142 18.3769C29.0388 17.8294 28.4597 17.5995 27.8481 17.4828C25.8195 17.0935 23.833 17.44 21.8559 17.9024C21.6236 17.9566 21.568 18.1288 21.5687 18.3509C21.5714 19.5211 21.5795 20.6913 21.5633 21.8609C21.5585 22.2207 21.7495 22.2235 21.9947 22.2144C22.2392 22.2053 22.5054 22.2741 22.4905 21.8517C22.4695 21.2557 22.4851 20.6583 22.4858 20.0616C22.4865 19.3067 22.6483 19.0825 23.3514 18.911C25.0948 18.4865 26.8653 18.3354 28.652 18.3663C28.9182 18.3712 29.1824 18.464 29.5136 18.3769H29.5142ZM22.4858 28.242H22.4797C22.4797 27.8793 22.4722 27.5159 22.4831 27.154C22.4892 26.9551 22.4133 26.8728 22.227 26.882C22.1254 26.8869 22.0232 26.8911 21.9229 26.8806C21.6622 26.8539 21.5579 26.9635 21.566 27.2418C21.5809 27.7563 21.5694 28.2715 21.57 28.7867C21.5707 29.4178 21.5938 29.4319 22.1878 29.5605C22.4302 29.6132 22.4919 29.5219 22.4878 29.2962C22.481 28.9455 22.4858 28.5941 22.4858 28.2427V28.242Z" fill="#BC4F66"/>
<path d="M32.5553 29.4193C30.1163 29.4207 28.1291 27.3705 28.125 24.8494C28.1209 22.3283 30.1136 20.2486 32.5336 20.2486C34.9801 20.2486 37.0073 22.3114 36.9998 24.7932C36.9917 27.3761 35.0295 29.4186 32.5553 29.42V29.4193ZM31.878 21.7049C31.8441 21.714 31.7886 21.7273 31.7351 21.7442C30.6399 22.0949 29.9219 22.8421 29.5812 23.9736C29.4634 24.3651 29.4884 24.3813 29.8853 24.3967C30.0222 24.4024 30.1861 24.3426 30.2701 24.531C30.4462 24.9274 30.2497 25.2781 29.8325 25.2683C29.5616 25.2619 29.4925 25.3554 29.5629 25.619C29.8874 26.8272 30.6466 27.5834 31.7886 27.9482C32.0629 28.0361 32.1421 27.8871 32.1184 27.6404C32.0853 27.3016 32.2241 27.1941 32.5458 27.1962C32.8615 27.1983 33.0342 27.258 33.0152 27.639C32.9983 27.9784 33.0863 28.0297 33.4047 27.9278C34.4606 27.5891 35.1657 26.8715 35.5192 25.787C35.6791 25.2964 35.6635 25.2823 35.1691 25.2739C35.0519 25.2718 34.9171 25.3189 34.8494 25.1544C34.6787 24.7418 34.8792 24.3982 35.3147 24.3996C35.5626 24.3996 35.635 24.3237 35.566 24.0685C35.2449 22.8962 34.5364 22.1174 33.4128 21.7555C33.0592 21.6416 33.0288 21.6704 33.0071 22.0514C32.9989 22.1954 33.0457 22.3669 32.8628 22.4435C32.4618 22.6108 32.1516 22.414 32.1218 21.9684C32.1117 21.8166 32.1008 21.6781 31.88 21.7042L31.878 21.7049Z" fill="#BC4F66"/>
<path d="M32.5257 25.9051C32.0509 25.91 31.7401 25.6956 31.587 25.257C31.4387 24.8325 31.5477 24.3546 31.8972 24.0931C32.4966 23.6454 33.1719 23.353 33.8804 23.1499C34.1208 23.081 34.261 23.1724 34.1879 23.4613C33.9969 24.2133 33.69 24.9133 33.2627 25.5501C33.0933 25.8024 32.8265 25.9093 32.5257 25.9051Z" fill="#BC4F66"/>
</g>
<defs>
<clipPath id="clip0_2335_221">
<rect width="26" height="24" fill="white" transform="translate(11 12)"/>
</clipPath>
</defs>
</svg>
