<svg width="46" height="46" viewBox="0 0 46 46" fill="none" xmlns="http://www.w3.org/2000/svg">
<path d="M6.46011 43.91L6.00612 44.801L6.00612 44.801L6.46011 43.91ZM2.08995 39.5399L2.98095 39.0859L2.98095 39.0859L2.08995 39.5399ZM43.9101 39.5399L43.0191 39.0859L43.0191 39.0859L43.9101 39.5399ZM39.5399 43.91L39.0859 43.019L39.5399 43.91ZM39.5399 2.08991L39.0859 2.98092L39.0859 2.98092L39.5399 2.08991ZM43.9101 6.46007L44.8011 6.00608L44.8011 6.00608L43.9101 6.46007ZM6.46011 2.08991L6.9141 2.98092L6.9141 2.98092L6.46011 2.08991ZM2.08995 6.46007L2.98095 6.91406L2.98095 6.91406L2.08995 6.46007ZM15.0036 2.00219C15.5559 2.00023 16.002 1.55092 16 0.998638C15.998 0.446357 15.5487 0.00023777 14.9965 0.0022036L15.0036 2.00219ZM31.0036 0.0022036C30.4513 0.000237771 30.002 0.446357 30 0.998638C29.9981 1.55092 30.4442 2.00023 30.9965 2.00219L31.0036 0.0022036ZM2.0017 30.8344C2.00008 30.2822 1.55105 29.8358 0.998771 29.8374C0.446488 29.839 9.04327e-05 30.288 0.0017133 30.8403L2.0017 30.8344ZM45.9983 30.8403C45.9999 30.288 45.5535 29.839 45.0013 29.8374C44.449 29.8358 43.9999 30.2822 43.9983 30.8344L45.9983 30.8403ZM43.9978 15.0035C43.9998 15.5558 44.4491 16.0019 45.0013 16C45.5536 15.998 45.9997 15.5487 45.9978 14.9964L43.9978 15.0035ZM14.9965 45.9977C15.5487 45.9997 15.998 45.5536 16 45.0013C16.002 44.449 15.5559 43.9997 15.0036 43.9978L14.9965 45.9977ZM30.9967 43.9978C30.4444 43.9997 29.9983 44.449 30.0003 45.0013C30.0022 45.5536 30.4515 45.9997 31.0038 45.9977L30.9967 43.9978ZM0.00224259 14.9964C0.000276758 15.5487 0.446396 15.998 0.998677 16C1.55096 16.0019 2.00026 15.5558 2.00223 15.0035L0.00224259 14.9964ZM24 15C24 14.4477 23.5523 14 23 14C22.4477 14 22 14.4477 22 15H24ZM19 26C18.4477 26 18 26.4477 18 27C18 27.5523 18.4477 28 19 28V26ZM14 13C14 12.4477 13.5523 12 13 12C12.4477 12 12 12.4477 12 13H14ZM12 17C12 17.5523 12.4477 18 13 18C13.5523 18 14 17.5523 14 17H12ZM34 13C34 12.4477 33.5523 12 33 12C32.4477 12 32 12.4477 32 13H34ZM32 17C32 17.5523 32.4477 18 33 18C33.5523 18 34 17.5523 34 17H32ZM13.7085 32.2943C13.3188 31.903 12.6856 31.9017 12.2943 32.2915C11.903 32.6812 11.9018 33.3144 12.2915 33.7057L13.7085 32.2943ZM33.7085 33.7057C34.0983 33.3144 34.097 32.6812 33.7057 32.2915C33.3144 31.9017 32.6812 31.903 32.2915 32.2943L33.7085 33.7057ZM6.9141 43.019C5.22064 42.1562 3.84381 40.7793 2.98095 39.0859L1.19894 39.9939C2.25355 42.0637 3.93634 43.7464 6.00612 44.801L6.9141 43.019ZM43.0191 39.0859C42.1562 40.7793 40.7794 42.1562 39.0859 43.019L39.9939 44.801C42.0637 43.7464 43.7465 42.0637 44.8011 39.9939L43.0191 39.0859ZM39.0859 2.98092C40.7794 3.84378 42.1562 5.2206 43.0191 6.91406L44.8011 6.00608C43.7465 3.9363 42.0637 2.25351 39.9939 1.1989L39.0859 2.98092ZM6.00612 1.1989C3.93633 2.25351 2.25355 3.9363 1.19894 6.00608L2.98095 6.91406C3.84381 5.2206 5.22064 3.84378 6.9141 2.98092L6.00612 1.1989ZM14.9965 0.0022036C10.7599 0.0172836 8.12694 0.118288 6.00612 1.1989L6.9141 2.98092C8.52895 2.15811 10.6399 2.01772 15.0036 2.00219L14.9965 0.0022036ZM30.9965 2.00219C35.3602 2.01772 37.4711 2.15811 39.0859 2.98092L39.9939 1.1989C37.8731 0.118288 35.2402 0.0172836 31.0036 0.0022036L30.9965 2.00219ZM0.0017133 30.8403C0.0144512 35.1752 0.105589 37.848 1.19894 39.9939L2.98095 39.0859C2.14703 37.4492 2.01484 35.306 2.0017 30.8344L0.0017133 30.8403ZM43.9983 30.8344C43.9852 35.306 43.853 37.4492 43.0191 39.0859L44.8011 39.9939C45.8944 37.848 45.9856 35.1752 45.9983 30.8403L43.9983 30.8344ZM45.9978 14.9964C45.9827 10.7598 45.8817 8.12691 44.8011 6.00608L43.0191 6.91406C43.8419 8.52891 43.9823 10.6398 43.9978 15.0035L45.9978 14.9964ZM15.0036 43.9978C10.6399 43.9822 8.52895 43.8418 6.9141 43.019L6.00612 44.801C8.12694 45.8817 10.7599 45.9827 14.9965 45.9977L15.0036 43.9978ZM31.0038 45.9977C35.2403 45.9827 37.8731 45.8816 39.9939 44.801L39.0859 43.019C37.4711 43.8418 35.3602 43.9822 30.9967 43.9978L31.0038 45.9977ZM2.00223 15.0035C2.01776 10.6398 2.15815 8.52891 2.98095 6.91406L1.19894 6.00608C0.118327 8.1269 0.0173226 10.7598 0.00224259 14.9964L2.00223 15.0035ZM22 15V23H24V15H22ZM22 23C22 24.6568 20.6569 26 19 26V28C21.7614 28 24 25.7614 24 23H22ZM12 13V17H14V13H12ZM32 13V17H34V13H32ZM23 36C19.2752 36 15.9582 34.5529 13.7085 32.2943L12.2915 33.7057C14.9281 36.3528 18.7602 38 23 38V36ZM32.2915 32.2943C30.0418 34.5529 26.7248 36 23 36V38C27.2398 38 31.0719 36.3528 33.7085 33.7057L32.2915 32.2943Z" fill="#87C232"/>
</svg>
