<svg width="48" height="48" viewBox="0 0 48 48" fill="none" xmlns="http://www.w3.org/2000/svg">
<circle cx="24" cy="24" r="24" fill="#80649F" fill-opacity="0.35"/>
<g clip-path="url(#clip0_2335_233)">
<path d="M25.7028 21.5536C25.7028 20.7974 25.7104 20.0402 25.7009 19.284C25.6915 18.5268 25.4442 17.9078 24.7375 17.535C24.2336 17.2684 23.7571 16.9507 23.2598 16.6715C23.0097 16.5315 22.9642 16.3818 23.1205 16.1317C23.9323 14.8259 24.8029 13.5617 25.7559 12.3593C26.1367 11.8773 26.7335 11.8831 27.1001 12.3622C29.5489 15.5638 31.6576 18.9682 32.9971 22.8188C33.6441 24.6799 34.0448 26.5845 33.9974 28.5827C33.914 32.1397 31.182 35.3577 27.7253 35.9025C23.0892 36.6326 19.0395 33.204 18.8558 28.4021C18.8425 28.067 18.9315 27.9945 19.2299 28.1133C19.7737 28.3297 20.2843 28.2099 20.7712 27.9231C22.1372 27.1176 23.5051 26.314 24.8692 25.5047C25.4802 25.1416 25.6896 24.5515 25.7009 23.8725C25.7133 23.0999 25.7038 22.3272 25.7038 21.5546L25.7028 21.5536ZM31.1138 28.2891C31.1261 27.5918 31.0087 26.9119 30.823 26.2445C30.716 25.8582 30.5909 25.4767 30.4535 25.101C30.3834 24.9078 30.2338 24.7794 30.0093 24.8286C29.7866 24.8779 29.7061 25.0508 29.7099 25.2604C29.7147 25.5008 29.7393 25.7404 29.7611 25.9799C29.8255 26.683 29.9278 27.3822 29.9013 28.093C29.8321 29.9309 28.7295 31.3381 27.0632 31.7206C26.2987 31.8963 25.5598 31.8326 24.8389 31.5351C24.5869 31.4318 24.3671 31.4492 24.2194 31.6964C24.0479 31.9833 24.2639 32.1416 24.4496 32.2923C24.5471 32.3715 24.6618 32.4304 24.7726 32.4922C27.3521 33.9235 31.1934 31.9514 31.1129 28.2881L31.1138 28.2891Z" fill="#80649F"/>
<path d="M24.5972 21.5672C24.5972 22.307 24.5867 23.0477 24.6019 23.7875C24.6095 24.1632 24.4911 24.4365 24.1661 24.6278C22.8399 25.4062 21.5165 26.1904 20.1932 26.9746C19.9014 27.1475 19.6257 27.1089 19.3444 26.9418C18.0608 26.1837 16.7763 25.4294 15.4889 24.677C15.1592 24.4839 14.9963 24.2212 15.0001 23.8146C15.0152 22.3021 15.0124 20.7897 15.002 19.2763C14.9991 18.8948 15.1403 18.6437 15.4652 18.4554C16.7403 17.7156 18.0115 16.968 19.2752 16.2089C19.6447 15.9868 19.9696 15.9965 20.3362 16.2176C21.5999 16.9777 22.8721 17.7233 24.1462 18.465C24.4731 18.6553 24.6028 18.9257 24.5991 19.2985C24.5905 20.0547 24.5962 20.8109 24.5972 21.5672ZM19.8048 17.3138C19.7451 17.3341 19.6958 17.3418 19.656 17.365C18.7807 17.874 17.9035 18.382 17.032 18.8987C16.7943 19.0397 16.8738 19.1614 17.0728 19.2763C17.8675 19.735 18.6614 20.1967 19.4505 20.6661C19.6958 20.8119 19.9137 20.808 20.1581 20.6612C20.9321 20.1967 21.7107 19.7418 22.4913 19.2888C22.7329 19.1488 22.8039 19.0291 22.5122 18.861C21.6757 18.3781 20.8449 17.8865 20.0113 17.4007C19.945 17.3621 19.8682 17.3408 19.8048 17.3148V17.3138ZM19.1871 23.6678C19.1871 23.2013 19.1843 22.7348 19.1881 22.2683C19.19 22.0249 19.1208 21.8328 18.901 21.7043C18.1214 21.2484 17.3446 20.7868 16.5678 20.3242C16.3064 20.1677 16.1577 20.1909 16.1596 20.5453C16.1643 21.4783 16.1652 22.4113 16.1596 23.3442C16.1577 23.6002 16.2647 23.7605 16.4788 23.8851C17.2603 24.338 18.04 24.7958 18.812 25.2662C19.1331 25.4612 19.1919 25.3144 19.189 25.0199C19.1843 24.5698 19.1881 24.1188 19.1871 23.6687V23.6678ZM23.4405 21.9747C23.4405 21.5247 23.4462 21.0756 23.4386 20.6255C23.431 20.1687 23.3685 20.1301 22.982 20.3561C22.2308 20.7945 21.4843 21.2436 20.7341 21.685C20.5418 21.798 20.4186 21.9458 20.4186 22.1814C20.4186 23.1453 20.4177 24.1091 20.4148 25.072C20.4148 25.3666 20.5285 25.3994 20.7634 25.2594C21.184 25.0073 21.5923 24.7108 22.0432 24.5379C23.1923 24.0975 23.6934 23.3172 23.4405 22.0713C23.4339 22.0404 23.4405 22.0076 23.4405 21.9747Z" fill="#80649F"/>
</g>
<defs>
<clipPath id="clip0_2335_233">
<rect width="19" height="24" fill="white" transform="translate(15 12)"/>
</clipPath>
</defs>
</svg>
