<svg width="66" height="49" viewBox="0 0 66 49" fill="none" xmlns="http://www.w3.org/2000/svg">
<path fill-rule="evenodd" clip-rule="evenodd" d="M2.37492 22.4583H10.5416C10.5416 10.0549 20.5965 0 32.9999 0C45.4035 0 55.4583 10.0549 55.4583 22.4583H63.6249C64.7523 22.4583 65.6666 23.3726 65.6666 24.5C65.6666 25.6274 64.7523 26.5417 63.6249 26.5417H2.37492C1.24735 26.5417 0.333252 25.6274 0.333252 24.5C0.333252 23.3726 1.24735 22.4583 2.37492 22.4583ZM32.9999 4.08333C22.8517 4.08333 14.6249 12.3101 14.6249 22.4583H51.3749C51.3749 12.3101 43.1482 4.08333 32.9999 4.08333ZM18.7084 32.6667C22.5137 32.6667 25.7113 35.2694 26.6178 38.7917H39.3823C40.2888 35.2694 43.4865 32.6667 47.2917 32.6667C51.8022 32.6667 55.4584 36.3229 55.4584 40.8334C55.4584 45.3438 51.8022 49 47.2917 49C43.4865 49 40.2888 46.3973 39.3823 42.875H26.6178C25.7113 46.3973 22.5137 49 18.7084 49C14.198 49 10.5417 45.3438 10.5417 40.8334C10.5417 36.3229 14.198 32.6667 18.7084 32.6667ZM14.625 40.8334C14.625 38.5781 16.4532 36.75 18.7084 36.75C20.9635 36.75 22.7917 38.5781 22.7917 40.8334C22.7917 43.0886 20.9635 44.9167 18.7084 44.9167C16.4532 44.9167 14.625 43.0886 14.625 40.8334ZM47.2917 44.9167C45.0365 44.9167 43.2084 43.0886 43.2084 40.8334C43.2084 38.5781 45.0365 36.75 47.2917 36.75C49.5469 36.75 51.375 38.5781 51.375 40.8334C51.375 43.0886 49.5469 44.9167 47.2917 44.9167Z" fill="#87C232"/>
</svg>
