<svg width="48" height="48" viewBox="0 0 48 48" fill="none" xmlns="http://www.w3.org/2000/svg">
<circle cx="24" cy="24" r="24" fill="#F39E0F" fill-opacity="0.35"/>
<g clip-path="url(#clip0_2335_227)">
<path d="M19.0392 12H19.4172C19.4444 12.0123 19.4716 12.0062 19.5018 12.0062C19.8465 12.0154 20.1882 12.0185 20.5269 12.0894C21.05 12.1974 21.561 12.3546 22.0478 12.5766C22.583 12.8202 23.0758 13.1286 23.5385 13.4956C23.859 13.7515 24.1523 14.0383 24.4335 14.3405C24.4819 14.3929 24.5151 14.396 24.5605 14.3436C24.881 13.992 25.2257 13.6683 25.6067 13.3846C25.9877 13.0978 26.3928 12.8542 26.8192 12.6445C27.3544 12.3855 27.9168 12.2097 28.4973 12.0863C28.7423 12.0339 28.9902 12.0185 29.2412 12.0093C29.347 12.0062 29.4498 12.0154 29.5556 12H29.9941C30.0787 12.0154 30.1664 12.0123 30.2511 12.0123C30.7137 12.0093 31.1582 12.1079 31.5997 12.2282C32.0744 12.3546 32.5249 12.5458 32.9603 12.774C33.4502 13.033 33.9037 13.3445 34.321 13.7176C34.4752 13.8533 34.6264 13.992 34.7685 14.14C35.2493 14.6365 35.6605 15.1854 35.9931 15.796C36.495 16.7087 36.8186 17.6862 36.9546 18.7254C36.9879 18.9721 36.9879 19.2219 36.994 19.4717C37 19.6844 36.997 19.8941 37 20.1069C37.0091 20.9179 36.8972 21.7135 36.7218 22.5029C36.7067 22.5707 36.6946 22.6355 36.6734 22.7033C36.6583 22.7527 36.6311 22.7773 36.5797 22.7743C36.5616 22.7743 36.5434 22.7743 36.5253 22.7743C35.2674 22.7743 34.0096 22.7743 32.7517 22.7743C32.6761 22.7743 32.6217 22.7496 32.5703 22.6972C32.1167 22.2315 31.6601 21.769 31.2066 21.3034C31.004 21.0967 30.7621 20.9796 30.4748 20.9919C30.115 21.0073 29.8399 21.1769 29.6675 21.5007C29.5375 21.7443 29.4226 21.9972 29.2986 22.2469C28.9781 22.9038 28.6546 23.5606 28.331 24.2174C28.2706 24.3407 28.2615 24.3438 28.1678 24.2451C28.0166 24.0817 27.8624 23.9245 27.7051 23.7672C27.5146 23.5791 27.3362 23.3786 27.1397 23.1998C26.7678 22.8606 26.2175 22.8698 25.8425 23.2275C25.7911 23.2769 25.7488 23.3355 25.7065 23.3941C25.2831 24.0015 24.8568 24.6059 24.4335 25.2134C24.1553 25.6112 23.8711 26.0059 23.5989 26.4099C23.5808 26.4376 23.5627 26.4654 23.5385 26.487C23.4992 26.527 23.4659 26.5178 23.4508 26.4623C23.4236 26.3605 23.4024 26.2557 23.3812 26.1539C23.2421 25.5218 23.094 24.8896 22.9519 24.2544C22.8007 23.5853 22.6495 22.9161 22.4983 22.2469C22.3381 21.5377 22.1778 20.8285 22.0175 20.1192C21.9389 19.7769 21.7484 19.5272 21.4219 19.4007C20.9925 19.2342 20.4966 19.3915 20.2638 19.8047C20.0642 20.1593 19.8737 20.517 19.6802 20.8747C19.5381 21.1368 19.393 21.3959 19.2539 21.658C19.0513 22.0342 18.8457 22.4104 18.6401 22.7835C18.4344 23.1597 18.2349 23.5359 18.0262 23.909C17.9809 23.9892 17.9386 24.0725 17.8962 24.1557C17.863 24.2236 17.8327 24.2266 17.7904 24.1681C17.6301 23.9553 17.4759 23.7394 17.3157 23.5267C17.101 23.2368 16.8893 22.9439 16.6746 22.654C16.3451 22.213 15.7161 22.1421 15.3019 22.4998C15.0902 22.6848 14.9058 22.8976 14.7062 23.098C14.6064 23.1967 14.5097 23.2985 14.4129 23.3971C14.3827 23.428 14.3524 23.4403 14.3101 23.4403C13.7084 23.4403 13.1067 23.4403 12.5019 23.4403C12.4294 23.4403 12.4112 23.4249 12.3931 23.3509C12.2752 22.8791 12.1875 22.398 12.1209 21.9139C12.0847 21.6518 12.0484 21.3866 12.0272 21.1245C12.0151 20.9611 12.0151 20.7976 12.0091 20.6342C12 20.2611 12 19.8849 12 19.5118C12 18.7347 12.1421 17.9823 12.378 17.2453C12.4959 16.8814 12.635 16.5268 12.8013 16.1845C13.0613 15.648 13.3788 15.1453 13.7507 14.6797C14.0501 14.3096 14.3766 13.9704 14.7365 13.6652C15.0842 13.3691 15.4531 13.107 15.8492 12.8788C16.5749 12.4625 17.352 12.1912 18.1714 12.0555C18.3498 12.0247 18.5282 12.0247 18.7066 12.0123C18.8185 12.0062 18.9273 12.0123 19.0392 12Z" fill="#F39E0F"/>
<path d="M13.7477 24.7416C14.0017 24.7416 14.2557 24.7416 14.5097 24.7416C14.7757 24.7416 15.0025 24.6429 15.19 24.4548C15.3986 24.2421 15.6073 24.0293 15.8159 23.8165C15.8764 23.7548 15.8794 23.7579 15.9308 23.8258C16.3209 24.3562 16.7049 24.8927 17.104 25.4169C17.5394 25.9905 18.383 25.9257 18.7368 25.2936C18.9878 24.8465 19.2297 24.3901 19.4746 23.9399C19.7709 23.3971 20.0703 22.8513 20.3666 22.3086C20.548 21.9756 20.7264 21.6456 20.9078 21.3126C20.9169 21.2941 20.9199 21.2663 20.9441 21.2694C20.9653 21.2725 20.9653 21.3034 20.9683 21.3219C21.1376 22.0712 21.307 22.8174 21.4763 23.5667C21.7726 24.8804 22.0719 26.1909 22.3683 27.5046C22.4953 28.0689 22.9912 28.3988 23.5445 28.2816C23.7894 28.2292 23.986 28.0966 24.1341 27.89C24.8144 26.9187 25.4948 25.9473 26.1751 24.976C26.284 24.8218 26.3928 24.6645 26.5017 24.5103C26.547 24.4456 26.5501 24.4456 26.6045 24.5011C26.9522 24.8557 27.2999 25.2134 27.6507 25.5649C27.8502 25.7654 28.0921 25.8702 28.3734 25.8579C28.7695 25.8394 29.0597 25.642 29.2381 25.2843C29.4165 24.9266 29.5919 24.5658 29.7673 24.2051C30.0092 23.7117 30.248 23.2214 30.4899 22.728C30.5141 22.6756 30.5413 22.6232 30.5655 22.5707C30.5807 22.5399 30.5988 22.5368 30.623 22.5615C30.6351 22.5738 30.6502 22.5861 30.6623 22.6016C31.0342 22.9809 31.4092 23.3601 31.778 23.7425C32.0018 23.9738 32.2679 24.0848 32.5823 24.0817C33.7344 24.0817 34.8864 24.0817 36.0384 24.0817C36.0657 24.0817 36.0929 24.0817 36.1171 24.0817C36.2289 24.0817 36.2289 24.0817 36.1927 24.1927C35.8933 25.0346 35.5274 25.8486 35.1071 26.635C34.5387 27.6988 33.8735 28.6948 33.1266 29.6354C32.5763 30.3292 31.9867 30.9891 31.3547 31.6089C30.4869 32.46 29.5586 33.2309 28.5608 33.9185C27.9561 34.3348 27.3302 34.7172 26.6801 35.0626C26.1056 35.3679 25.5159 35.6392 24.9173 35.8859C24.8659 35.9075 24.8114 35.9291 24.757 35.9476C24.5756 36.0185 24.3972 36.0123 24.2158 35.9414C23.348 35.5991 22.5043 35.2106 21.6849 34.7604C20.8625 34.3102 20.0733 33.8075 19.3143 33.2525C18.6854 32.7899 18.0837 32.2935 17.5092 31.76C16.8863 31.1833 16.3027 30.5666 15.7615 29.9098C15.1598 29.1821 14.6155 28.4112 14.1408 27.5909C13.6872 26.8077 13.2941 25.9967 12.9736 25.1487C12.9313 25.0376 12.892 24.9266 12.8527 24.8156C12.8315 24.7539 12.8376 24.7416 12.9041 24.7416C13.1823 24.7416 13.4604 24.7416 13.7416 24.7416H13.7477Z" fill="#F39E0F"/>
</g>
<defs>
<clipPath id="clip0_2335_227">
<rect width="25" height="24" fill="white" transform="translate(12 12)"/>
</clipPath>
</defs>
</svg>
