<svg width="18" height="18" viewBox="0 0 18 18" fill="none" xmlns="http://www.w3.org/2000/svg">
<path d="M10.6003 5.64091C10.6003 5.12839 10.184 4.71269 9.67037 4.71269C9.15673 4.71269 8.74048 5.12839 8.74048 5.64091V9.53061L6.16211 10.6616C5.69243 10.8679 5.47938 11.4148 5.6861 11.8831C5.89282 12.3514 6.4409 12.564 6.91024 12.3581L9.99697 11.004C10.3496 10.8721 10.6003 10.5329 10.6003 10.135V5.64091ZM17.8101 5.91243C17.8368 5.8335 17.8534 5.74966 17.8579 5.66231L17.9985 3.08426C18.0249 2.57384 17.6312 2.13885 17.1196 2.11289C16.6081 2.08658 16.1722 2.47948 16.1462 2.9899L16.1201 3.46699C15.737 2.97502 15.3033 2.52447 14.826 2.12271C14.1943 1.59089 13.4767 1.13731 12.6812 0.783346C10.4076 -0.228721 7.94032 -0.226265 5.78981 0.595666C3.66109 1.40953 1.83964 3.02568 0.818703 5.25538C0.791634 5.30379 0.768782 5.35501 0.7505 5.40833C-0.228956 7.65557 -0.217354 10.0856 0.596867 12.2072C1.41249 14.3314 3.03215 16.1489 5.26668 17.1672C5.4051 17.2446 5.56118 17.2851 5.71985 17.2848C6.23348 17.2848 6.64973 16.8694 6.64973 16.3569C6.64973 15.9535 6.39169 15.6104 6.03133 15.4827C5.76098 15.3589 5.50188 15.2206 5.25473 15.0687C5.2266 15.0456 5.19672 15.0238 5.16508 15.0035C4.76676 14.7467 4.38813 14.4527 4.0457 14.1251C4.0232 14.1037 3.99965 14.0833 3.97539 14.0647C3.24906 13.3456 2.69289 12.484 2.33324 11.5474C1.67722 9.83897 1.67335 7.88289 2.47738 6.08468L2.47773 6.08362C3.28176 4.28541 4.74145 2.98183 6.4511 2.32828C8.16321 1.67403 10.1235 1.67018 11.9256 2.47211C12.5401 2.74523 13.1129 3.10342 13.6272 3.5361C13.9739 3.82796 14.2882 4.1486 14.5676 4.49344L14.4464 4.47835C13.9369 4.41626 13.4732 4.77829 13.411 5.2866C13.3488 5.79491 13.7116 6.25762 14.221 6.31972L16.7895 6.63544C17.2698 6.69367 17.7092 6.37549 17.8101 5.91243ZM8.03349 17.9436C7.29942 17.8615 6.94926 16.9989 7.41966 16.4295C7.6204 16.1864 7.92556 16.0668 8.23845 16.099C8.78548 16.1604 9.33286 16.1594 9.87955 16.0945C10.2079 16.0555 10.5282 16.1899 10.73 16.4513C11.1645 17.0276 10.8196 17.8464 10.1035 17.9369C9.41513 18.019 8.72255 18.0207 8.03349 17.9436ZM13.9658 16.5169C13.6873 16.7014 13.341 16.7224 13.0405 16.5779C12.3974 16.2601 12.3384 15.3708 12.9346 14.9726C13.385 14.6762 13.8185 14.3075 14.1865 13.9146C14.5233 13.5568 15.0753 13.5199 15.456 13.8308C15.5544 13.9112 15.6351 14.0109 15.6933 14.1237C15.7514 14.2365 15.7858 14.3601 15.7942 14.4867C15.8026 14.6133 15.7849 14.7402 15.7421 14.8597C15.6994 14.9792 15.6325 15.0887 15.5457 15.1813C15.0767 15.6795 14.5381 16.1404 13.9658 16.5169ZM17.6157 11.6456C17.513 11.9768 17.2388 12.2181 16.8982 12.2834C16.2112 12.4107 15.6322 11.7628 15.8389 11.0969C16.0027 10.5707 16.1022 10.0354 16.1426 9.48571C16.1905 8.84269 16.8532 8.44663 17.4455 8.70237C17.8066 8.86549 18.0242 9.22121 17.9978 9.61691C17.9479 10.3066 17.8214 10.985 17.6157 11.6456Z" fill="#F5B041"/>
</svg>
