<svg width="50" height="51" viewBox="0 0 50 51" fill="none" xmlns="http://www.w3.org/2000/svg">
<path fill-rule="evenodd" clip-rule="evenodd" d="M41.7493 43.1755C44.0435 40.8814 45.8474 38.2119 47.1064 35.2337C48.4079 32.1465 49.0738 28.8838 49.0738 25.5061C49.0738 22.1283 48.4079 18.8535 47.1064 15.7724C45.8474 12.7942 44.0495 10.1186 41.7493 7.82446C39.4491 5.53027 36.7796 3.72639 33.8014 2.46731C30.7142 1.15981 27.4394 0.5 24.0677 0.5C19.673 0.5 15.351 1.65617 11.5616 3.84745C10.696 4.34988 10.3994 5.46368 10.9018 6.3293C11.4043 7.19491 12.5181 7.49152 13.3837 6.98911C16.6161 5.11864 20.3086 4.13196 24.0677 4.13196C29.7759 4.13196 35.1391 6.35351 39.1767 10.391C43.2142 14.4286 45.4357 19.7918 45.4357 25.5C45.4357 31.2082 43.2142 36.5714 39.1767 40.609C35.1391 44.6465 29.7759 46.868 24.0677 46.868C20.3147 46.868 16.6161 45.8814 13.3897 44.0109C12.5181 43.5085 11.4103 43.8051 10.9079 44.6707C10.4055 45.5424 10.7021 46.6501 11.5677 47.1525C15.351 49.3438 19.673 50.5 24.0677 50.5C27.4454 50.5 30.7202 49.8402 33.8014 48.5327C36.7796 47.2736 39.4551 45.4697 41.7493 43.1755ZM18.5592 12.7337C17.851 13.4419 17.851 14.592 18.5592 15.3002L26.949 23.684H2.74201C1.73716 23.684 0.926025 24.4952 0.926025 25.5C0.926025 26.5048 1.73716 27.316 2.74201 27.316H26.949L18.5653 35.7058C17.857 36.414 17.857 37.5642 18.5653 38.2724C19.2735 38.9806 20.4236 38.9806 21.1318 38.2724L32.627 26.8015C32.6361 26.7893 32.6467 26.7788 32.6573 26.7682C32.6679 26.7576 32.6784 26.747 32.6875 26.7349C32.6953 26.731 32.7006 26.7245 32.7067 26.7172C32.71 26.7132 32.7135 26.7089 32.7178 26.7046C32.7238 26.6985 32.7284 26.6925 32.7329 26.6864C32.7375 26.6804 32.742 26.6743 32.7481 26.6683C32.7541 26.6562 32.7662 26.638 32.7783 26.6259C32.7904 26.6138 32.7965 26.6077 32.8025 26.5956C32.8086 26.5866 32.8146 26.579 32.8207 26.5714C32.8268 26.5639 32.8328 26.5563 32.8389 26.5472C32.8449 26.5412 32.851 26.5291 32.857 26.523C32.857 26.5169 32.8631 26.5169 32.8631 26.5109C32.8669 26.4995 32.8731 26.4905 32.8786 26.4824C32.8819 26.4775 32.885 26.473 32.8873 26.4685C32.8873 26.4625 32.8933 26.4504 32.8994 26.4443C32.9054 26.4352 32.91 26.4261 32.9145 26.4171C32.9191 26.408 32.9236 26.3989 32.9297 26.3898C32.9297 26.3838 32.9357 26.3717 32.9418 26.3656C32.9448 26.3565 32.9493 26.3475 32.9539 26.3384C32.9584 26.3293 32.963 26.3202 32.966 26.3111C32.969 26.3051 32.9705 26.3005 32.972 26.296C32.9735 26.2915 32.9751 26.2869 32.9781 26.2809C32.9902 26.2688 32.9962 26.2506 33.0023 26.2324C33.0023 26.2236 33.0055 26.218 33.0097 26.2108C33.0112 26.2082 33.0128 26.2054 33.0144 26.2022C33.0174 26.1931 33.0205 26.1855 33.0235 26.1779C33.0265 26.1704 33.0295 26.1628 33.0326 26.1538C33.0356 26.1477 33.0371 26.1416 33.0386 26.1356C33.0401 26.1295 33.0416 26.1235 33.0447 26.1174C33.0494 26.1032 33.0542 26.0926 33.0589 26.0799C33.0602 26.0765 33.0615 26.0729 33.0628 26.069C33.0659 26.063 33.0674 26.0569 33.0689 26.0508C33.0704 26.0448 33.0719 26.0387 33.0749 26.0327C33.078 26.0266 33.0795 26.0191 33.081 26.0115C33.0825 26.0039 33.084 25.9964 33.087 25.9903C33.0897 25.9824 33.0912 25.9756 33.0925 25.9694C33.0943 25.9615 33.0957 25.9547 33.0991 25.9479C33.1022 25.9389 33.1037 25.9313 33.1052 25.9237C33.1067 25.9162 33.1082 25.9086 33.1113 25.8995C33.1113 25.8895 33.1131 25.8814 33.1147 25.874C33.1161 25.868 33.1173 25.8626 33.1173 25.8571C33.1234 25.839 33.1294 25.8208 33.1294 25.8027C33.1294 25.7966 33.1309 25.7906 33.1324 25.7845C33.134 25.7785 33.1355 25.7724 33.1355 25.7663C33.1355 25.7542 33.137 25.7436 33.1385 25.733C33.14 25.7225 33.1415 25.7119 33.1415 25.6998V25.6816C33.1536 25.5605 33.1536 25.4334 33.1415 25.3123V25.3063C33.1385 25.2942 33.137 25.2806 33.1355 25.2669C33.134 25.2533 33.1324 25.2397 33.1294 25.2276C33.1234 25.2215 33.1234 25.2155 33.1234 25.2094C33.1201 25.1998 33.1186 25.1884 33.117 25.1763C33.1156 25.1656 33.1141 25.1542 33.1113 25.1429C33.1113 25.1398 33.1097 25.1353 33.1082 25.1308C33.1067 25.1262 33.1052 25.1217 33.1052 25.1186C33.1052 25.0986 33.101 25.0827 33.0962 25.064C33.0952 25.0602 33.0941 25.0562 33.0931 25.0521C33.0931 25.0479 33.0924 25.0445 33.0915 25.0415C33.0897 25.0358 33.087 25.0318 33.087 25.0278C33.084 25.0157 33.081 25.0051 33.078 24.9945C33.0749 24.984 33.0719 24.9734 33.0689 24.9613C33.0689 24.9582 33.0674 24.9552 33.0659 24.9522C33.0643 24.9492 33.0628 24.9461 33.0628 24.9431C33.0598 24.931 33.0553 24.9204 33.0507 24.9098C33.0462 24.8992 33.0416 24.8886 33.0386 24.8765C33.0386 24.8735 33.0371 24.872 33.0356 24.8705C33.0341 24.8689 33.0326 24.8674 33.0326 24.8644C33.0265 24.8523 33.022 24.8402 33.0174 24.8281C33.0129 24.816 33.0083 24.8039 33.0023 24.7918V24.7857L32.966 24.7131C32.8812 24.5315 32.7662 24.368 32.6149 24.2167L32.6028 24.2046L21.1258 12.7337C20.7747 12.3765 20.3086 12.201 19.8425 12.201C19.3764 12.201 18.9163 12.3765 18.5592 12.7337Z" fill="#87C232"/>
</svg>
