<svg width="219" height="50" viewBox="0 0 219 50" fill="none" xmlns="http://www.w3.org/2000/svg">
<path d="M52.3234 7.1831C52.8336 7.43254 53.1737 7.97892 53.2558 8.555C53.3496 9.2261 53.7307 9.32707 54.2526 9.27361C55.3491 9.16077 56.2873 8.63815 56.8737 7.74136C57.4014 6.9396 57.9526 6.17941 58.6152 5.49049C59.225 4.86096 59.0256 4.27894 58.5917 3.63753C58.1637 3.008 57.6535 2.96643 57.0437 3.21587C56.1935 3.56033 55.355 3.89291 54.4285 4.03545C53.4199 4.18986 52.3703 5.15791 52.0068 6.00718C51.8016 6.4823 51.696 6.86833 52.3293 7.1831H52.3234Z" fill="#87C232"/>
<path d="M4.21094 33.368C4.73867 32.8335 5.09636 32.5425 5.07877 32.5247C5.06117 32.5128 4.70935 32.8097 4.21094 33.368Z" fill="#87C232"/>
<path d="M14.1329 7.74136C14.7192 8.63814 15.6574 9.16077 16.7539 9.27361C17.2758 9.32706 17.657 9.22016 17.7508 8.555C17.8329 7.98486 18.173 7.43847 18.6831 7.1831C19.3164 6.87427 19.2108 6.48824 19.0056 6.00718C18.6421 5.15791 17.5925 4.18986 16.5839 4.03545C15.6574 3.89291 14.8189 3.56033 13.9687 3.21587C13.353 2.96643 12.8429 3.008 12.4207 3.63753C11.9868 4.27894 11.7815 4.85502 12.3914 5.49049C13.0539 6.17347 13.6051 6.93366 14.1329 7.74136Z" fill="#87C232"/>
<path d="M66.7713 33.3383C66.2846 32.7979 65.9386 32.5069 65.9269 32.5247C65.9093 32.5365 66.2553 32.8276 66.7713 33.3383Z" fill="#87C232"/>
<path d="M66.7946 33.368C67.8735 34.5617 69.6444 36.9433 70.2366 39.9187C70.4184 40.8511 70.4536 41.6588 70.3304 42.4724C70.26 42.9476 69.9434 45.0024 68.2957 46.4219C66.8826 47.6275 65.1938 47.8056 63.2002 47.9541C62.7076 47.9897 62.2033 48.0076 61.699 48.0076C58.691 48.0076 56.5038 47.3661 56.4158 47.3424C53.8886 46.5288 51.3613 45.632 48.8751 44.6639C53.2377 40.8511 55.9995 35.221 55.9995 28.9435C55.9995 28.5634 55.9878 28.1833 55.9702 27.8091C62.9539 22.0899 65.9971 18.0514 67.6742 15.4976C70.1428 11.7561 71.2979 7.9314 70.9344 4.72436C70.7878 3.41779 70.4242 2.47943 69.7968 1.79051C68.9114 0.816519 67.5334 0.317646 65.7039 0.317646C65.3521 0.317646 64.9769 0.335462 64.5547 0.371096C62.8894 0.51957 61.2123 1.15504 59.8402 2.16466C59.7816 2.20624 59.5764 2.37253 59.5471 2.57445C59.5001 2.92485 59.9399 3.44154 60.3387 3.51281C60.3621 3.51875 60.3856 3.51875 60.409 3.51875C60.538 3.51875 60.7022 3.41779 61.0306 3.20992C61.2241 3.09114 61.4645 2.94267 61.7694 2.77638C62.4555 2.39628 63.4992 1.82614 64.6485 1.70143C64.7658 1.68955 64.9651 1.67173 65.2114 1.67173C65.9268 1.67173 67.2461 1.81427 68.0729 2.75856C68.9466 3.75631 68.8352 5.20542 68.583 6.61295C68.454 7.33157 68.2781 8.068 68.0553 8.78661C67.1816 11.7145 65.5867 14.488 63.4523 16.7923L61.7635 18.6156C59.7816 20.7596 57.7176 22.7966 55.5715 24.7327C54.1231 17.5822 49.0276 11.762 42.3488 9.35082C41.2523 8.95884 40.0854 9.71903 39.9799 10.889V10.9187C47.1453 12.7479 52.6455 18.871 53.6482 26.4194C50.212 29.3651 46.5824 32.0377 42.8003 34.4311C42.6479 34.5261 42.5013 34.6211 42.3488 34.7102C40.8067 35.6723 39.3055 36.5513 37.8631 37.3531C37.8162 37.3827 37.7634 37.4065 37.7165 37.4362C37.2767 37.2283 36.8017 37.0739 36.3209 36.9908C36.362 36.9551 36.4089 36.9195 36.4558 36.872C36.8369 36.5335 37.3353 36.1177 37.4995 35.6842C37.9569 34.4845 37.3764 33.2967 36.4792 32.5187C36.3268 32.3881 36.2212 32.198 36.1861 31.9961C36.1743 31.9308 36.2095 31.8654 36.2623 31.8358C39.6926 30.0719 41.7507 27.1855 36.5379 25.8255C39.0534 25.3445 44.0024 24.5902 40.9122 21.1397C40.7363 20.9377 40.6718 20.7774 40.8067 20.522C41.3813 19.3817 40.1206 18.0395 38.942 18.5265C37.1184 19.1976 38.1797 22.0424 39.9036 21.3475C40.4314 21.0565 40.6132 21.3832 40.8888 21.7454C41.8504 22.9926 41.6334 23.8597 40.2027 24.4655C38.9127 25.0119 37.5288 25.1782 36.1802 25.4692C35.8929 25.5286 35.9515 25.3207 35.9574 25.1603C35.9984 24.2161 36.0453 23.2718 36.0864 22.3275C36.2154 19.3877 36.3444 16.4419 36.4616 13.4962C36.4734 13.1874 36.5789 13.0033 36.8311 12.8192C39.9564 10.4258 35.7697 6.29225 33.4418 9.333C32.6561 10.4376 32.9493 12.0234 34.1103 12.8251C34.3507 12.9914 34.4621 13.1636 34.4739 13.4606C34.6322 17.3625 34.8257 21.2644 34.984 25.1663C34.984 25.3029 35.0544 25.4989 34.7846 25.4573C34.1044 25.3563 33.436 25.2376 32.7734 25.0594C30.4044 24.6199 28.1762 23.7588 30.51 21.2466C30.6507 20.9853 31.3368 21.7692 32.0756 21.3535C34.2041 20.3676 32.3571 17.3981 30.5217 18.8175C29.4311 20.0825 30.6624 20.6586 30.1464 21.0862C26.9273 24.6437 31.8938 25.291 34.4914 25.8671C29.3607 27.0786 31.1784 30.0838 34.7846 31.8773C35.0426 32.0317 35.0602 32.1327 34.8081 32.2931C34.468 32.5128 33.3773 33.8134 33.3246 34.8409C33.2718 35.8386 34.1924 36.6582 34.6087 36.9789C34.1279 37.0502 33.6529 37.1927 33.2073 37.3887C33.2073 37.3887 33.2073 37.3887 33.2014 37.3946C33.178 37.3827 33.1545 37.3649 33.1252 37.3531C31.6827 36.5513 30.1875 35.6723 28.6512 34.7102C28.4987 34.6152 28.3521 34.5261 28.1997 34.4311C24.4117 32.0377 20.788 29.3651 17.346 26.4194C18.3487 18.871 23.8547 12.7479 31.026 10.9128C31.026 10.9009 31.026 10.8949 31.026 10.8831C30.9204 9.71309 29.7536 8.9529 28.6571 9.34488C21.9724 11.7502 16.8769 17.5763 15.4227 24.7268C13.2766 22.7907 11.2125 20.7477 9.23646 18.6097L7.54771 16.7864C5.41333 14.4761 3.8184 11.7086 2.94471 8.78067C2.72775 8.05612 2.55184 7.32563 2.41697 6.60701C2.16483 5.19354 2.05342 3.75037 2.92712 2.75262C3.74803 1.80833 5.07323 1.66579 5.7886 1.66579C6.03488 1.66579 6.23425 1.67767 6.35152 1.69549C7.50667 1.8202 8.54455 2.39628 9.2306 2.77044C9.53551 2.93673 9.78179 3.09114 9.96943 3.20398C10.2978 3.41185 10.462 3.51281 10.591 3.51281C10.6144 3.51281 10.6379 3.51281 10.6613 3.50687C11.0659 3.4356 11.4999 2.91891 11.4529 2.56851C11.4236 2.36659 11.2243 2.2003 11.1598 2.15873C9.78765 1.1491 8.11063 0.513631 6.44534 0.365157C6.02902 0.329523 5.65374 0.311707 5.29605 0.311707C3.46658 0.311707 2.0886 0.804641 1.20318 1.78457C0.575768 2.47349 0.212219 3.41185 0.0656267 4.71842C-0.297923 7.91952 0.857228 11.7442 3.32585 15.4917C5.00873 18.0455 8.04613 22.084 15.0298 27.7973C15.0122 28.1773 15.0005 28.5515 15.0005 28.9316C15.0005 35.2091 17.7682 40.8392 22.1308 44.652C19.6445 45.6201 17.1173 46.5169 14.59 47.3305C14.5021 47.3602 12.3208 47.9957 9.30683 47.9957C8.80255 47.9957 8.29827 47.9779 7.80572 47.9422C5.8062 47.7938 4.11745 47.6215 2.71016 46.41C1.05659 44.9906 0.745817 42.9416 0.675453 42.4606C0.552315 41.6469 0.581633 40.8392 0.769272 39.9068C1.35564 36.9373 3.12062 34.5677 4.19954 33.368C2.71016 34.8646 -0.13374 38.1904 0.018716 42.2408C0.0480345 43.001 0.153581 44.6402 1.2325 46.1012C2.94471 48.4173 5.88242 48.738 8.0344 48.9756C8.60318 49.0409 9.14851 49.0706 9.69383 49.0706C11.0249 49.0706 12.4967 48.8865 14.6076 48.4649C17.6098 47.865 20.53 47.0514 23.7491 45.917C26.7044 48.0194 30.2344 49.3616 34.0458 49.6348C34.5266 49.6705 35.0133 49.6883 35.5059 49.6883C35.9984 49.6883 36.4792 49.6705 36.9601 49.6348C40.7715 49.3616 44.3014 48.0194 47.2626 45.917C50.4759 47.0514 53.396 47.865 56.4041 48.4649C58.515 48.8865 59.9868 49.0706 61.3179 49.0706C61.8632 49.0706 62.4086 49.0409 62.9773 48.9756C65.1234 48.738 68.067 48.4173 69.7734 46.1012C70.8523 44.6402 70.9578 43.001 70.9872 42.2408C71.1396 38.1786 68.2781 34.8468 66.7887 33.3561L66.7946 33.368ZM53.8124 29.5196C53.6364 35.3219 50.8219 40.4532 46.5414 43.7374C44.3777 42.8585 41.3403 41.5994 37.7517 39.8237C43.4277 36.8482 48.8165 33.3918 53.8065 29.5196H53.8124ZM35.887 26.6926C35.9163 26.1462 35.9222 26.1462 36.4323 26.2709C37.9745 26.5322 40.2789 27.6369 38.8482 29.472C38.0976 30.4223 36.9659 30.9627 35.9398 31.5566C35.8636 31.5982 35.7697 31.5447 35.7697 31.4557C35.7521 29.8581 35.7815 28.2842 35.8811 26.6926H35.887ZM34.8374 26.164C35.113 26.0868 35.0485 26.3066 35.0544 26.4372C35.1013 27.2687 35.2596 31.1409 35.2772 31.3844C35.2772 31.426 35.2889 31.5269 35.1716 31.5626C35.1189 31.5804 35.0544 31.5626 35.0074 31.5388C31.6065 29.7749 29.8181 27.2806 34.8433 26.164H34.8374ZM34.5208 36.4681C33.1487 35.3991 33.6119 33.4749 35.3124 32.5009C35.3593 33.3977 35.4003 34.2292 35.4472 35.0606H35.5117C35.5528 34.2113 35.588 33.3621 35.629 32.5009C36.5965 32.8573 37.3705 34.0629 37.2884 35.0606C37.2474 35.4704 37.0011 35.9455 36.6552 36.3137C36.0864 36.9136 35.1716 36.9789 34.5208 36.4681ZM35.5117 37.2758C36.1391 37.2877 36.7783 37.4243 37.3647 37.6678C37.2884 37.7094 37.2063 37.7569 37.1301 37.7985C36.878 37.9351 36.6258 38.0717 36.3796 38.2023C36.1333 38.3389 35.8811 38.4696 35.6349 38.5943C35.5938 38.618 35.5528 38.6359 35.5059 38.6596C35.4648 38.6359 35.4238 38.618 35.3769 38.5943C35.1306 38.4636 34.8843 38.333 34.6322 38.2023C34.3859 38.0717 34.1338 37.9351 33.8816 37.7985C33.7819 37.745 33.6764 37.6856 33.5708 37.6262C34.1865 37.3827 34.855 37.264 35.5117 37.2758ZM17.1876 29.5136C22.1777 33.3858 27.5664 36.8423 33.2483 39.8177C29.6597 41.5935 26.6282 42.8525 24.4586 43.7315C20.1781 40.4472 17.3636 35.316 17.1876 29.5136ZM37.1184 47.4255C36.5848 47.473 36.0453 47.4968 35.5 47.4968C34.9547 47.4968 34.4093 47.473 33.8758 47.4255C31.1315 47.182 28.5632 46.3209 26.2998 44.9846C26.6341 44.8599 26.9624 44.7292 27.3025 44.5927C29.6949 43.6424 31.7941 42.7159 33.4653 41.9379C34.1162 41.635 34.7025 41.3559 35.2127 41.1065C35.2655 41.0827 35.3124 41.059 35.3651 41.0352C35.412 41.0115 35.4531 40.9936 35.5 40.9758C35.5469 40.9936 35.588 41.0174 35.6349 41.0352C35.6818 41.059 35.7345 41.0827 35.7873 41.1065C36.2975 41.3559 36.878 41.6291 37.523 41.932C39.1941 42.71 41.3051 43.6365 43.6975 44.5927C44.0376 44.7292 44.3659 44.8599 44.7002 44.9846C42.4368 46.3268 39.8626 47.188 37.1125 47.4315L37.1184 47.4255Z" fill="#87C232"/>
<path d="M23.2331 38.9625C23.9543 39.5742 24.7928 39.7999 25.731 39.6158C25.9069 39.5623 26.0828 39.5267 26.2529 39.4554C26.6692 39.2891 26.7337 39.1169 26.5813 38.6893C26.3467 38.042 25.8307 37.65 25.2971 37.3055C24.8221 36.9967 24.3179 36.7235 23.7491 36.6285C23.6318 36.6107 23.5087 36.6047 23.3855 36.6166C23.2917 36.6226 23.2155 36.6879 23.192 36.7888C23.1627 36.8957 23.2096 36.9729 23.2917 37.0264C23.45 37.1214 23.6084 37.2105 23.7725 37.2877C24.4117 37.6025 25.0156 37.9648 25.5258 38.4755C25.5962 38.5468 25.7076 38.6121 25.6724 38.7249C25.6372 38.8437 25.5082 38.8259 25.4144 38.8437C24.2768 39.0456 23.192 38.327 22.8637 37.1689C22.8519 37.1214 22.8402 37.068 22.8285 37.0205C22.7933 36.8957 22.7347 36.777 22.5881 36.7948C22.4356 36.8126 22.4122 36.9433 22.4063 37.0739C22.377 37.846 22.6702 38.4814 23.2448 38.9625H23.2331Z" fill="#87C232"/>
<path d="M44.7064 39.8058C44.8764 39.8712 45.0523 39.9127 45.2283 39.9662C46.1664 40.1444 47.005 39.9246 47.7262 39.3129C48.3008 38.8259 48.594 38.1904 48.5647 37.4243C48.5647 37.2937 48.5354 37.163 48.3829 37.1452C48.2305 37.1274 48.1777 37.2461 48.1425 37.3709C48.1308 37.4184 48.1191 37.4718 48.1073 37.5193C47.7731 38.6774 46.6883 39.3961 45.5566 39.1941C45.4628 39.1763 45.3338 39.1941 45.2986 39.0754C45.2634 38.9625 45.3748 38.8972 45.4452 38.8259C45.9554 38.3152 46.5593 37.9469 47.1985 37.6381C47.3626 37.5609 47.521 37.4718 47.6793 37.3768C47.7614 37.3293 47.8083 37.2461 47.779 37.1392C47.7496 37.0383 47.6793 36.9789 47.5855 36.967C47.4682 36.9551 47.3451 36.9611 47.2219 36.9789C46.6531 37.0739 46.1489 37.3471 45.6739 37.6559C45.1403 38.0063 44.6184 38.3924 44.3897 39.0397C44.2373 39.4673 44.3018 39.6396 44.7181 39.8058H44.7064Z" fill="#87C232"/>
<path d="M101.134 26.9267L102.016 26.336C103.23 25.5255 104.125 24.5982 104.681 23.5679C105.237 22.5376 105.522 21.0882 105.522 19.2543C105.522 16.1153 104.722 13.8005 103.155 12.4062C101.534 10.9569 98.8827 10.215 95.2613 10.215H83V39.785H90.8125V28.6507H94.0067L97.2009 39.785H105.624L101.134 26.9267ZM91.9654 17.3791H93.3014C94.0203 17.3791 94.5424 17.6127 94.8951 18.066C95.2342 18.5193 95.4105 19.323 95.4105 20.5044C95.4105 21.6858 95.2477 22.5169 94.9222 22.984C94.5967 23.4511 94.027 23.6846 93.2471 23.6846H91.9654V17.386V17.3791Z" fill="#F5F5F5"/>
<path d="M117.715 27.4556H125.88V22.7024H117.715V16.0603H127.182L127.67 10.215H109.428V39.785H127.182L127.657 34.6197H117.715V27.4556Z" fill="#F5F5F5"/>
<path d="M146.918 10.215L144.7 30.0451H141.682L139.22 10.215H130.201L136.175 39.785H149.725L155.361 10.215H146.911H146.918Z" fill="#F5F5F5"/>
<path d="M158.901 10.215V39.785H167.025V10.215H158.901Z" fill="#F5F5F5"/>
<path d="M186.753 10.215L184.549 30.0451H181.531L179.056 10.215H170.05L176.011 39.785H189.561L195.196 10.215H186.746H186.753Z" fill="#F5F5F5"/>
<path d="M212.937 10.215H199.469L193.399 39.785H200.975L202.06 34.7983H209.954L210.984 39.785H219L212.944 10.215H212.937ZM202.283 30.8281L204.799 17.2692H207.248L209.696 30.8281H202.283Z" fill="#F5F5F5"/>
</svg>
