<svg width="26" height="22" viewBox="0 0 26 22" fill="none" xmlns="http://www.w3.org/2000/svg">
<path d="M14.2 5.44444H4.84C3.49588 5.44444 2.82381 5.44444 2.31042 5.68666C1.85883 5.8997 1.49168 6.23966 1.26159 6.6578C1 7.13316 1 7.75544 1 9V13C1 14.2446 1 14.8669 1.26159 15.3422C1.49168 15.7603 1.85883 16.1003 2.31042 16.3133C2.82381 16.5556 3.49587 16.5556 4.84 16.5556H14.2M19 5.44444H21.16C22.5041 5.44444 23.1762 5.44444 23.6896 5.68666C24.1412 5.8997 24.5084 6.23966 24.7384 6.6578C25 7.13316 25 7.75544 25 9V13C25 14.2446 25 14.8669 24.7384 15.3422C24.5084 15.7603 24.1412 16.1003 23.6896 16.3133C23.1762 16.5556 22.5041 16.5556 21.16 16.5556H19M19 21V1M22 1.00001L16 1M22 21H16" stroke="#F5B041" stroke-width="2" stroke-linecap="round" stroke-linejoin="round"/>
</svg>
