<svg width="322" height="282" viewBox="0 0 322 282" fill="none" xmlns="http://www.w3.org/2000/svg">
<g clip-path="url(#clip0_2022_338)">
<path d="M207.056 18.5706C208.452 19.2459 209.383 20.7251 209.608 22.2847C209.864 24.1016 210.908 24.3749 212.336 24.2302C215.337 23.9247 217.905 22.5098 219.51 20.082C220.955 17.9114 222.463 15.8534 224.277 13.9883C225.946 12.2839 225.4 10.7083 224.213 8.97178C223.041 7.26746 221.645 7.15491 219.976 7.83021C217.648 8.76276 215.353 9.66315 212.818 10.049C210.057 10.4671 207.184 13.0879 206.189 15.3871C205.627 16.6734 205.339 17.7185 207.072 18.5706H207.056Z" fill="#87C232"/>
<path d="M75.3701 89.4605C76.8146 88.0135 77.7936 87.2256 77.7455 87.1774C77.6973 87.1452 76.7344 87.9491 75.3701 89.4605Z" fill="#87C232"/>
<path d="M102.526 20.082C104.131 22.5098 106.699 23.9247 109.7 24.2302C111.128 24.3749 112.172 24.0855 112.428 22.2847C112.653 20.7412 113.584 19.262 114.98 18.5706C116.714 17.7345 116.425 16.6894 115.863 15.3871C114.868 13.0879 111.995 10.4671 109.234 10.049C106.699 9.66315 104.404 8.76276 102.076 7.83021C100.391 7.15491 98.9949 7.26746 97.8394 8.97178C96.6517 10.7083 96.09 12.2679 97.7591 13.9883C99.5727 15.8373 101.081 17.8953 102.526 20.082Z" fill="#87C232"/>
<path d="M246.602 89.3801C245.27 87.917 244.323 87.1291 244.291 87.1774C244.242 87.2095 245.189 87.9974 246.602 89.3801Z" fill="#87C232"/>
<path d="M246.666 89.4605C249.619 92.6923 254.466 99.1397 256.087 107.195C256.584 109.719 256.681 111.906 256.344 114.109C256.151 115.395 255.284 120.958 250.775 124.801C246.907 128.065 242.284 128.547 236.828 128.949C235.479 129.046 234.099 129.094 232.719 129.094C224.486 129.094 218.499 127.357 218.258 127.293C211.341 125.09 204.424 122.663 197.619 120.042C209.56 109.719 217.119 94.477 217.119 77.4821C217.119 76.453 217.087 75.424 217.039 74.4111C236.153 58.9275 244.483 47.9942 249.073 41.0804C255.83 30.951 258.992 20.5965 257.997 11.9141C257.596 8.37687 256.6 5.83647 254.883 3.97137C252.46 1.3345 248.688 -0.0160871 243.681 -0.0160871C242.718 -0.0160871 241.691 0.0321483 240.535 0.128619C235.977 0.53058 231.387 2.25097 227.631 4.98431C227.471 5.09686 226.909 5.54706 226.829 6.09373C226.7 7.04235 227.904 8.44118 228.995 8.63412C229.06 8.6502 229.124 8.6502 229.188 8.6502C229.541 8.6502 229.99 8.37687 230.889 7.81412C231.419 7.49255 232.077 7.09059 232.911 6.64039C234.789 5.61137 237.646 4.06784 240.792 3.73019C241.113 3.69804 241.658 3.6498 242.333 3.6498C244.291 3.6498 247.902 4.03568 250.165 6.59216C252.556 9.29334 252.251 13.2165 251.561 17.0271C251.208 18.9726 250.726 20.9663 250.117 22.9118C247.725 30.8385 243.36 38.3471 237.518 44.5855L232.895 49.5216C227.471 55.326 221.821 60.8409 215.947 66.0824C211.983 46.724 198.036 30.9671 179.756 24.4392C176.754 23.3781 173.561 25.4361 173.272 28.6036V28.684C192.884 33.6361 207.939 50.213 210.683 70.6487C201.278 78.6236 191.343 85.8589 180.992 92.3386C180.574 92.5958 180.173 92.8531 179.756 93.0942C175.535 95.699 171.426 98.0786 167.478 100.249C167.35 100.33 167.205 100.394 167.077 100.474C165.873 99.9115 164.573 99.4935 163.257 99.2684C163.369 99.1719 163.498 99.0754 163.626 98.9468C164.669 98.0303 166.033 96.9048 166.483 95.7311C167.735 92.4833 166.146 89.2676 163.69 87.1613C163.273 86.8076 162.984 86.2931 162.888 85.7464C162.856 85.5695 162.952 85.3927 163.096 85.3123C172.485 80.537 178.119 72.7228 163.851 69.0409C170.736 67.7385 184.282 65.6966 175.824 56.355C175.342 55.8083 175.166 55.3742 175.535 54.6828C177.108 51.5957 173.657 47.962 170.431 49.2805C165.44 51.0973 168.345 58.7989 173.063 56.9177C174.508 56.1299 175.005 57.0142 175.759 57.995C178.392 61.3715 177.798 63.7189 173.882 65.3589C170.351 66.8381 166.563 67.2883 162.872 68.0762C162.085 68.237 162.246 67.6742 162.262 67.2401C162.374 64.6836 162.503 62.1271 162.615 59.5707C162.968 51.6118 163.321 43.6369 163.642 35.662C163.674 34.8259 163.963 34.3275 164.653 33.8291C173.208 27.3494 161.748 16.1588 155.377 24.391C153.226 27.3816 154.028 31.6745 157.206 33.8451C157.864 34.2953 158.169 34.7616 158.201 35.5655C158.635 46.1291 159.164 56.6926 159.598 67.2562C159.598 67.626 159.79 68.1566 159.052 68.044C157.19 67.7707 155.361 67.4491 153.547 66.9668C147.063 65.777 140.964 63.4456 147.352 56.6444C147.737 55.9369 149.615 58.0593 151.637 56.9338C157.463 54.2648 152.407 46.2255 147.384 50.0683C144.399 53.493 147.769 55.0526 146.357 56.2103C137.546 65.8413 151.14 67.5938 158.249 69.1534C144.206 72.4334 149.182 80.5691 159.052 85.4248C159.758 85.8429 159.806 86.1162 159.116 86.5503C158.185 87.1452 155.2 90.6664 155.056 93.448C154.911 96.1491 157.431 98.368 158.57 99.2362C157.254 99.4292 155.954 99.815 154.735 100.346C154.735 100.346 154.735 100.346 154.719 100.362C154.654 100.33 154.59 100.281 154.51 100.249C150.562 98.0786 146.469 95.699 142.264 93.0942C141.847 92.837 141.446 92.5958 141.028 92.3386C130.66 85.8589 120.742 78.6236 111.321 70.6487C114.065 50.213 129.136 33.6361 148.764 28.6679C148.764 28.6357 148.764 28.6196 148.764 28.5875C148.475 25.42 145.282 23.362 142.28 24.4232C123.984 30.9349 110.037 46.7079 106.057 66.0664C100.183 60.8248 94.5332 55.2938 89.1245 49.5056L84.5023 44.5695C78.6603 38.3149 74.2948 30.8224 71.9035 22.8957C71.3096 20.9341 70.8282 18.9565 70.459 17.011C69.7689 13.1843 69.464 9.27726 71.8553 6.57608C74.1022 4.01961 77.7294 3.63372 79.6874 3.63372C80.3615 3.63372 80.9072 3.66588 81.2282 3.71411C84.3899 4.05176 87.2307 5.61137 89.1085 6.62431C89.943 7.07451 90.6171 7.49255 91.1307 7.79804C92.0295 8.36079 92.4789 8.63412 92.8319 8.63412C92.8961 8.63412 92.9603 8.63412 93.0245 8.61804C94.1319 8.4251 95.3196 7.02628 95.1912 6.07765C95.111 5.53098 94.5653 5.08078 94.3887 4.96823C90.6332 2.2349 86.043 0.514502 81.485 0.112541C80.3455 0.0160698 79.3183 -0.0321655 78.3393 -0.0321655C73.3319 -0.0321655 69.5602 1.30235 67.1368 3.95529C65.4195 5.82039 64.4244 8.36079 64.0232 11.898C63.0281 20.5643 66.1899 30.9189 72.9467 41.0644C77.5529 47.9781 85.8665 58.9114 104.981 74.3789C104.933 75.4079 104.901 76.4209 104.901 77.4499C104.901 94.4448 112.476 109.687 124.417 120.01C117.612 122.63 110.695 125.058 103.778 127.261C103.537 127.341 97.5665 129.062 89.3171 129.062C87.9369 129.062 86.5566 129.014 85.2085 128.917C79.7356 128.515 75.1134 128.049 71.2615 124.769C66.7355 120.926 65.8849 115.379 65.6923 114.077C65.3553 111.874 65.4355 109.687 65.9491 107.163C67.5541 99.1237 72.385 92.7084 75.338 89.4605C71.2615 93.5123 63.4775 102.516 63.8948 113.482C63.975 115.54 64.2639 119.977 67.217 123.933C71.9035 130.203 79.9442 131.072 85.8344 131.715C87.3912 131.892 88.8838 131.972 90.3764 131.972C94.0196 131.972 98.048 131.473 103.826 130.332C112.043 128.708 120.036 126.505 128.847 123.434C136.936 129.126 146.598 132.76 157.03 133.499C158.346 133.596 159.678 133.644 161.026 133.644C162.374 133.644 163.69 133.596 165.006 133.499C175.438 132.76 185.1 129.126 193.205 123.434C202 126.505 209.993 128.708 218.226 130.332C224.004 131.473 228.032 131.972 231.676 131.972C233.168 131.972 234.661 131.892 236.218 131.715C242.092 131.072 250.149 130.203 254.819 123.933C257.772 119.977 258.061 115.54 258.141 113.482C258.559 102.484 250.726 93.464 246.65 89.4284L246.666 89.4605ZM211.132 79.0417C210.651 94.7503 202.947 108.642 191.231 117.533C185.309 115.154 176.995 111.745 167.173 106.938C182.709 98.8825 197.458 89.5248 211.116 79.0417H211.132ZM162.069 71.3883C162.149 69.9091 162.166 69.9091 163.562 70.2468C167.783 70.9542 174.09 73.9448 170.174 78.913C168.12 81.4856 165.022 82.9487 162.214 84.5566C162.005 84.6691 161.748 84.5244 161.748 84.2832C161.7 79.9581 161.78 75.6974 162.053 71.3883H162.069ZM159.196 69.9573C159.951 69.7483 159.774 70.3432 159.79 70.697C159.919 72.9479 160.352 83.4311 160.4 84.0903C160.4 84.2029 160.432 84.4762 160.111 84.5727C159.967 84.6209 159.79 84.5727 159.662 84.5083C150.353 79.733 145.458 72.9801 159.212 69.9573H159.196ZM158.33 97.8535C154.574 94.9593 155.842 89.7499 160.496 87.1131C160.625 89.5409 160.737 91.7919 160.866 94.0429H161.042C161.154 91.7437 161.251 89.4444 161.363 87.1131C164.011 88.0778 166.13 91.3417 165.905 94.0429C165.793 95.1523 165.119 96.4386 164.172 97.4354C162.615 99.0593 160.111 99.2362 158.33 97.8535ZM161.042 100.04C162.759 100.072 164.509 100.442 166.114 101.101C165.905 101.214 165.68 101.342 165.472 101.455C164.782 101.825 164.091 102.195 163.417 102.548C162.743 102.918 162.053 103.272 161.379 103.61C161.267 103.674 161.154 103.722 161.026 103.786C160.914 103.722 160.801 103.674 160.673 103.61C159.999 103.256 159.325 102.902 158.635 102.548C157.961 102.195 157.27 101.825 156.58 101.455C156.307 101.31 156.019 101.15 155.73 100.989C157.415 100.33 159.245 100.008 161.042 100.04ZM110.888 79.0256C124.546 89.5088 139.295 98.8664 154.847 106.922C145.025 111.729 136.727 115.138 130.789 117.517C119.073 108.626 111.369 94.7342 110.888 79.0256ZM165.44 127.518C163.979 127.647 162.503 127.711 161.01 127.711C159.517 127.711 158.025 127.647 156.564 127.518C149.053 126.859 142.023 124.528 135.828 120.91C136.743 120.572 137.642 120.219 138.573 119.849C145.121 117.276 150.867 114.768 155.441 112.662C157.222 111.842 158.827 111.086 160.224 110.411C160.368 110.346 160.496 110.282 160.641 110.218C160.769 110.153 160.882 110.105 161.01 110.057C161.138 110.105 161.251 110.17 161.379 110.218C161.508 110.282 161.652 110.346 161.796 110.411C163.193 111.086 164.782 111.826 166.547 112.646C171.121 114.752 176.899 117.26 183.447 119.849C184.378 120.219 185.277 120.572 186.192 120.91C179.996 124.544 172.951 126.875 165.424 127.534L165.44 127.518Z" fill="#87C232"/>
<path d="M127.435 104.606C129.409 106.262 131.704 106.873 134.272 106.375C134.753 106.23 135.235 106.134 135.7 105.941C136.839 105.491 137.016 105.024 136.599 103.867C135.957 102.114 134.544 101.053 133.084 100.121C131.784 99.2844 130.404 98.5448 128.847 98.2876C128.526 98.2393 128.189 98.2233 127.852 98.2554C127.595 98.2715 127.386 98.4484 127.322 98.7217C127.242 99.0111 127.37 99.2201 127.595 99.3648C128.028 99.6221 128.462 99.8633 128.911 100.072C130.66 100.924 132.314 101.905 133.71 103.288C133.902 103.481 134.207 103.658 134.111 103.963C134.015 104.285 133.662 104.237 133.405 104.285C130.291 104.831 127.322 102.886 126.423 99.7507C126.391 99.6221 126.359 99.4774 126.327 99.3487C126.231 99.0111 126.07 98.6895 125.669 98.7378C125.252 98.786 125.188 99.1397 125.172 99.4934C125.091 101.584 125.894 103.304 127.467 104.606H127.435Z" fill="#87C232"/>
<path d="M186.208 106.89C186.673 107.066 187.155 107.179 187.636 107.324C190.204 107.806 192.499 107.211 194.473 105.555C196.046 104.237 196.848 102.516 196.768 100.442C196.768 100.088 196.688 99.7346 196.271 99.6864C195.853 99.6382 195.709 99.9597 195.613 100.297C195.581 100.426 195.548 100.571 195.516 100.699C194.601 103.835 191.632 105.78 188.535 105.233C188.278 105.185 187.925 105.233 187.829 104.912C187.732 104.606 188.037 104.43 188.23 104.237C189.626 102.854 191.279 101.857 193.029 101.021C193.478 100.812 193.911 100.571 194.345 100.313C194.569 100.185 194.698 99.9597 194.618 99.6703C194.537 99.397 194.345 99.2362 194.088 99.204C193.767 99.1719 193.43 99.188 193.093 99.2362C191.536 99.4935 190.156 100.233 188.856 101.069C187.395 102.018 185.967 103.063 185.341 104.815C184.924 105.973 185.1 106.439 186.24 106.89H186.208Z" fill="#87C232"/>
<path d="M42.9984 204.242L45.0849 202.859C47.9577 200.962 50.0762 198.791 51.3923 196.38C52.7083 193.968 53.3824 190.575 53.3824 186.282C53.3824 178.935 51.4886 173.516 47.7812 170.252C43.9453 166.86 37.67 165.123 29.0996 165.123H0.0822144V234.341H18.5712V208.278H26.1305L33.6898 234.341H53.6232L42.9984 204.242ZM21.2996 181.893H24.4613C26.1626 181.893 27.3984 182.44 28.2329 183.501C29.0354 184.562 29.4527 186.443 29.4527 189.209C29.4527 191.974 29.0675 193.92 28.2971 195.013C27.5268 196.106 26.1786 196.653 24.3329 196.653H21.2996V181.909V181.893Z" fill="#F5F5F5"/>
<path d="M82.2393 205.48H101.563V194.354H82.2393V178.806H104.644L105.8 165.123H62.6269V234.341H104.644L105.768 222.25H82.2393V205.48Z" fill="#F5F5F5"/>
<path d="M151.348 165.123L146.1 211.542H138.958L133.132 165.123H111.786L125.926 234.341H157.993L171.33 165.123H151.332H151.348Z" fill="#F5F5F5"/>
<path d="M179.708 165.123V234.341H198.935V165.123H179.708Z" fill="#F5F5F5"/>
<path d="M245.623 165.123L240.407 211.542H233.265L227.406 165.123H206.093L220.2 234.341H252.267L265.604 165.123H245.607H245.623Z" fill="#F5F5F5"/>
<path d="M307.59 165.123H275.715L261.351 234.341H279.278L281.846 222.668H300.528L302.967 234.341H321.938L307.606 165.123H307.59ZM282.376 213.375L288.33 181.636H294.124L299.918 213.375H282.376Z" fill="#F5F5F5"/>
<path d="M1.02109 262.638V250.177H5.67543C6.73469 250.177 7.63346 250.354 8.38778 250.691C9.14211 251.029 9.73594 251.511 10.1372 252.155C10.5384 252.798 10.7471 253.553 10.7471 254.454C10.7471 255.354 10.5384 256.094 10.1372 256.721C9.73594 257.364 9.14211 257.846 8.38778 258.184C7.63346 258.522 6.71864 258.699 5.67543 258.699H1.74331L2.33714 258.088V262.638H1.02109ZM2.33714 258.184L1.74331 257.557H5.62728C6.87913 257.557 7.81 257.284 8.46803 256.737C9.12606 256.19 9.431 255.419 9.431 254.438C9.431 253.457 9.11001 252.669 8.46803 252.122C7.82605 251.576 6.87913 251.302 5.62728 251.302H1.74331L2.33714 250.675V258.168V258.184ZM9.51124 262.638L6.3174 258.12H7.74581L10.9557 262.638H9.51124Z" fill="#F5F5F5"/>
<path d="M17.6804 261.496H25.1594V262.638H16.3643V250.177H24.9027V251.318H17.6804V261.496ZM17.536 255.756H24.1162V256.882H17.536V255.756Z" fill="#F5F5F5"/>
<path d="M28.7545 262.638L34.436 250.177H35.736L41.4176 262.638H40.0373L34.8052 250.933H35.3348L30.1027 262.638H28.7385H28.7545ZM30.9854 259.309L31.3706 258.248H38.6089L38.9941 259.309H30.9854Z" fill="#F5F5F5"/>
<path d="M49.4101 262.75C48.4793 262.75 47.5966 262.606 46.7459 262.3C45.8953 261.995 45.2373 261.609 44.7879 261.126L45.3015 260.113C45.7348 260.548 46.3286 260.901 47.0669 261.191C47.8052 261.48 48.5916 261.625 49.4101 261.625C50.2287 261.625 50.8225 261.528 51.32 261.335C51.8176 261.142 52.1706 260.869 52.3953 260.548C52.62 260.21 52.7484 259.84 52.7484 259.438C52.7484 258.956 52.604 258.554 52.3311 258.264C52.0583 257.975 51.6892 257.734 51.2398 257.557C50.7904 257.38 50.2929 257.235 49.7472 257.107C49.2015 256.978 48.6558 256.833 48.1101 256.689C47.5645 256.544 47.0669 256.335 46.6015 256.094C46.1521 255.853 45.783 255.515 45.4941 255.113C45.2212 254.711 45.0768 254.164 45.0768 253.505C45.0768 252.894 45.2373 252.315 45.5583 251.801C45.8793 251.286 46.3768 250.868 47.0669 250.547C47.7571 250.225 48.6077 250.08 49.6669 250.08C50.3731 250.08 51.0632 250.177 51.7534 250.37C52.4435 250.563 53.0373 250.836 53.5349 251.174L53.0855 252.219C52.5558 251.865 51.9941 251.608 51.3842 251.431C50.7904 251.27 50.2126 251.174 49.6509 251.174C48.9126 251.174 48.2867 251.27 47.8052 251.479C47.3237 251.672 46.9546 251.946 46.7299 252.283C46.5052 252.621 46.3768 253.007 46.3768 253.425C46.3768 253.907 46.5212 254.309 46.7941 254.599C47.0669 254.904 47.4361 255.129 47.9015 255.29C48.3669 255.451 48.8645 255.611 49.4101 255.74C49.9558 255.869 50.5015 256.013 51.0311 256.174C51.5768 256.335 52.0743 256.528 52.5237 256.769C52.9731 257.01 53.3423 257.332 53.6311 257.734C53.904 258.136 54.0484 258.666 54.0484 259.326C54.0484 259.937 53.8879 260.499 53.5509 261.014C53.2139 261.528 52.7163 261.946 52.0262 262.268C51.3521 262.589 50.4694 262.734 49.4101 262.734V262.75Z" fill="#F5F5F5"/>
<path d="M62.8275 262.75C61.8966 262.75 61.0139 262.606 60.1633 262.3C59.3127 261.995 58.6546 261.609 58.2053 261.126L58.7188 260.113C59.1522 260.548 59.746 260.901 60.4843 261.191C61.2226 261.48 62.009 261.625 62.8275 261.625C63.646 261.625 64.2399 261.528 64.7374 261.335C65.2349 261.142 65.588 260.869 65.8127 260.548C66.0374 260.21 66.1658 259.84 66.1658 259.438C66.1658 258.956 66.0213 258.554 65.7485 258.264C65.4757 257.975 65.1065 257.734 64.6571 257.557C64.2078 257.38 63.7102 257.235 63.1645 257.107C62.6189 256.978 62.0732 256.833 61.5275 256.689C60.9818 256.544 60.4843 256.335 60.0188 256.094C59.5695 255.853 59.2003 255.515 58.9114 255.113C58.6386 254.711 58.4942 254.164 58.4942 253.505C58.4942 252.894 58.6546 252.315 58.9756 251.801C59.2966 251.286 59.7942 250.868 60.4843 250.547C61.1744 250.225 62.025 250.08 63.0843 250.08C63.7905 250.08 64.4806 250.177 65.1707 250.37C65.8608 250.563 66.4547 250.836 66.9522 251.174L66.5028 252.219C65.9732 251.865 65.4115 251.608 64.8016 251.431C64.2078 251.27 63.63 251.174 63.0682 251.174C62.33 251.174 61.704 251.27 61.2226 251.479C60.7411 251.672 60.3719 251.946 60.1472 252.283C59.9226 252.621 59.7942 253.007 59.7942 253.425C59.7942 253.907 59.9386 254.309 60.2114 254.599C60.4843 254.904 60.8534 255.129 61.3189 255.29C61.7843 255.451 62.2818 255.611 62.8275 255.74C63.3732 255.869 63.9189 256.013 64.4485 256.174C64.9942 256.335 65.4917 256.528 65.9411 256.769C66.3905 257.01 66.7596 257.332 67.0485 257.734C67.3213 258.136 67.4658 258.666 67.4658 259.326C67.4658 259.937 67.3053 260.499 66.9683 261.014C66.6312 261.528 66.1337 261.946 65.4436 262.268C64.7695 262.589 63.8868 262.734 62.8275 262.734V262.75Z" fill="#F5F5F5"/>
<path d="M74.1263 261.496H81.6053V262.638H72.8102V250.177H81.3485V251.318H74.1263V261.496ZM73.9819 255.756H80.5621V256.882H73.9819V255.756Z" fill="#F5F5F5"/>
<path d="M90.6251 262.75C89.6943 262.75 88.8115 262.606 87.9609 262.3C87.1103 261.995 86.4523 261.609 86.0029 261.126L86.5165 260.113C86.9498 260.548 87.5436 260.901 88.2819 261.191C89.0202 261.48 89.8066 261.625 90.6251 261.625C91.4437 261.625 92.0375 261.528 92.535 261.335C93.0326 261.142 93.3856 260.869 93.6103 260.548C93.835 260.21 93.9634 259.84 93.9634 259.438C93.9634 258.956 93.819 258.554 93.5461 258.264C93.2733 257.975 92.9042 257.734 92.4548 257.557C92.0054 257.38 91.5079 257.235 90.9622 257.107C90.4165 256.978 89.8708 256.833 89.3251 256.689C88.7795 256.544 88.2819 256.335 87.8165 256.094C87.3671 255.853 86.998 255.515 86.7091 255.113C86.4362 254.711 86.2918 254.164 86.2918 253.505C86.2918 252.894 86.4523 252.315 86.7733 251.801C87.0943 251.286 87.5918 250.868 88.2819 250.547C88.972 250.225 89.8227 250.08 90.8819 250.08C91.5881 250.08 92.2782 250.177 92.9684 250.37C93.6585 250.563 94.2523 250.836 94.7498 251.174L94.3005 252.219C93.7708 251.865 93.2091 251.608 92.5992 251.431C92.0054 251.27 91.4276 251.174 90.8659 251.174C90.1276 251.174 89.5017 251.27 89.0202 251.479C88.5387 251.672 88.1696 251.946 87.9449 252.283C87.7202 252.621 87.5918 253.007 87.5918 253.425C87.5918 253.907 87.7362 254.309 88.0091 254.599C88.2819 254.904 88.6511 255.129 89.1165 255.29C89.5819 255.451 90.0795 255.611 90.6251 255.74C91.1708 255.869 91.7165 256.013 92.2461 256.174C92.7918 256.335 93.2893 256.528 93.7387 256.769C94.1881 257.01 94.5573 257.332 94.8461 257.734C95.119 258.136 95.2634 258.666 95.2634 259.326C95.2634 259.937 95.1029 260.499 94.7659 261.014C94.4289 261.528 93.9313 261.946 93.2412 262.268C92.5671 262.589 91.6844 262.734 90.6251 262.734V262.75Z" fill="#F5F5F5"/>
<path d="M104.042 262.75C103.112 262.75 102.229 262.606 101.378 262.3C100.528 261.995 99.8696 261.609 99.4202 261.126L99.9338 260.113C100.367 260.548 100.961 260.901 101.699 261.191C102.438 261.48 103.224 261.625 104.042 261.625C104.861 261.625 105.455 261.528 105.952 261.335C106.45 261.142 106.803 260.869 107.028 260.548C107.252 260.21 107.381 259.84 107.381 259.438C107.381 258.956 107.236 258.554 106.963 258.264C106.691 257.975 106.321 257.734 105.872 257.557C105.423 257.38 104.925 257.235 104.38 257.107C103.834 256.978 103.288 256.833 102.742 256.689C102.197 256.544 101.699 256.335 101.234 256.094C100.784 255.853 100.415 255.515 100.126 255.113C99.8536 254.711 99.7091 254.164 99.7091 253.505C99.7091 252.894 99.8696 252.315 100.191 251.801C100.512 251.286 101.009 250.868 101.699 250.547C102.389 250.225 103.24 250.08 104.299 250.08C105.005 250.08 105.696 250.177 106.386 250.37C107.076 250.563 107.67 250.836 108.167 251.174L107.718 252.219C107.188 251.865 106.626 251.608 106.017 251.431C105.423 251.27 104.845 251.174 104.283 251.174C103.545 251.174 102.919 251.27 102.438 251.479C101.956 251.672 101.587 251.946 101.362 252.283C101.138 252.621 101.009 253.007 101.009 253.425C101.009 253.907 101.154 254.309 101.426 254.599C101.699 254.904 102.068 255.129 102.534 255.29C102.999 255.451 103.497 255.611 104.042 255.74C104.588 255.869 105.134 256.013 105.663 256.174C106.209 256.335 106.707 256.528 107.156 256.769C107.605 257.01 107.975 257.332 108.263 257.734C108.536 258.136 108.681 258.666 108.681 259.326C108.681 259.937 108.52 260.499 108.183 261.014C107.846 261.528 107.349 261.946 106.659 262.268C105.984 262.589 105.102 262.734 104.042 262.734V262.75Z" fill="#F5F5F5"/>
<path d="M114.25 262.734C113.993 262.734 113.768 262.638 113.576 262.445C113.383 262.252 113.303 262.027 113.303 261.753C113.303 261.48 113.399 261.239 113.576 261.062C113.752 260.885 113.977 260.789 114.25 260.789C114.523 260.789 114.731 260.885 114.924 261.062C115.117 261.239 115.197 261.464 115.197 261.753C115.197 262.043 115.101 262.252 114.924 262.445C114.747 262.638 114.523 262.734 114.25 262.734Z" fill="#F5F5F5"/>
<path d="M127.796 262.638V250.177H132.45C133.509 250.177 134.408 250.354 135.162 250.691C135.917 251.029 136.511 251.511 136.912 252.155C137.313 252.798 137.522 253.553 137.522 254.454C137.522 255.354 137.313 256.094 136.912 256.721C136.511 257.364 135.917 257.846 135.162 258.184C134.408 258.522 133.493 258.699 132.45 258.699H128.518L129.112 258.088V262.638H127.796ZM129.096 258.184L128.502 257.557H132.386C133.638 257.557 134.569 257.284 135.227 256.737C135.885 256.19 136.19 255.419 136.19 254.438C136.19 253.457 135.869 252.669 135.227 252.122C134.585 251.576 133.638 251.302 132.386 251.302H128.502L129.096 250.675V258.168V258.184ZM136.286 262.638L133.092 258.12H134.52L137.73 262.638H136.286Z" fill="#F5F5F5"/>
<path d="M144.439 261.496H151.918V262.638H143.123V250.177H151.661V251.318H144.439V261.496ZM144.294 255.756H150.875V256.882H144.294V255.756Z" fill="#F5F5F5"/>
<path d="M158.819 262.638H157.503V250.177H166.041V251.318H158.819V262.638ZM158.675 256.206H165.255V257.348H158.675V256.206Z" fill="#F5F5F5"/>
<path d="M171.241 262.638V250.177H172.558V262.638H171.241Z" fill="#F5F5F5"/>
<path d="M179.106 262.638V250.177H180.197L188.784 260.998H188.222V250.177H189.522V262.638H188.43L179.86 251.817H180.422V262.638H179.106Z" fill="#F5F5F5"/>
<path d="M197.354 261.496H204.833V262.638H196.038V250.177H204.576V251.318H197.354V261.496ZM197.21 255.756H203.79V256.882H197.21V255.756Z" fill="#F5F5F5"/>
<path d="M210.45 262.734C210.193 262.734 209.969 262.638 209.776 262.445C209.584 262.252 209.503 262.027 209.503 261.753C209.503 261.48 209.6 261.239 209.776 261.062C209.953 260.885 210.177 260.789 210.45 260.789C210.723 260.789 210.932 260.885 211.124 261.062C211.317 261.239 211.397 261.464 211.397 261.753C211.397 262.043 211.301 262.252 211.124 262.445C210.948 262.638 210.723 262.734 210.45 262.734Z" fill="#F5F5F5"/>
<path d="M223.996 262.638V250.177H228.65C229.71 250.177 230.608 250.354 231.363 250.691C232.117 251.029 232.711 251.511 233.112 252.155C233.513 252.798 233.722 253.553 233.722 254.454C233.722 255.354 233.513 256.094 233.112 256.721C232.711 257.364 232.117 257.846 231.363 258.184C230.608 258.522 229.694 258.699 228.65 258.699H224.718L225.312 258.088V262.638H223.996ZM225.312 258.184L224.718 257.557H228.602C229.854 257.557 230.785 257.284 231.443 256.737C232.101 256.19 232.406 255.419 232.406 254.438C232.406 253.457 232.085 252.669 231.443 252.122C230.801 251.576 229.854 251.302 228.602 251.302H224.718L225.312 250.675V258.168V258.184ZM232.502 262.638L229.308 258.12H230.737L233.947 262.638H232.502Z" fill="#F5F5F5"/>
<path d="M240.655 261.496H248.134V262.638H239.339V250.177H247.878V251.318H240.655V261.496ZM240.511 255.756H247.091V256.882H240.511V255.756Z" fill="#F5F5F5"/>
<path d="M255.036 262.638H253.72V250.177H262.258V251.318H255.036V262.638ZM254.891 256.206H261.471V257.348H254.891V256.206Z" fill="#F5F5F5"/>
<path d="M267.458 262.638V250.177H272.112C273.172 250.177 274.07 250.354 274.825 250.691C275.579 251.029 276.173 251.511 276.574 252.155C276.975 252.798 277.184 253.553 277.184 254.454C277.184 255.354 276.975 256.094 276.574 256.721C276.173 257.364 275.579 257.846 274.825 258.184C274.07 258.522 273.155 258.699 272.112 258.699H268.18L268.774 258.088V262.638H267.458ZM268.774 258.184L268.18 257.557H272.064C273.316 257.557 274.247 257.284 274.905 256.737C275.563 256.19 275.868 255.419 275.868 254.438C275.868 253.457 275.547 252.669 274.905 252.122C274.263 251.576 273.316 251.302 272.064 251.302H268.18L268.774 250.675V258.168V258.184ZM275.964 262.638L272.77 258.12H274.199L277.409 262.638H275.964Z" fill="#F5F5F5"/>
<path d="M284.117 261.496H291.596V262.638H282.801V250.177H291.34V251.318H284.117V261.496ZM283.973 255.756H290.553V256.882H283.973V255.756Z" fill="#F5F5F5"/>
<path d="M300.616 262.75C299.685 262.75 298.802 262.606 297.952 262.3C297.101 261.995 296.443 261.609 295.994 261.126L296.507 260.113C296.941 260.548 297.535 260.901 298.273 261.191C299.011 261.48 299.798 261.625 300.616 261.625C301.435 261.625 302.028 261.528 302.526 261.335C303.023 261.142 303.377 260.869 303.601 260.548C303.826 260.21 303.954 259.84 303.954 259.438C303.954 258.956 303.81 258.554 303.537 258.264C303.264 257.975 302.895 257.734 302.446 257.557C301.996 257.38 301.499 257.235 300.953 257.107C300.407 256.978 299.862 256.833 299.316 256.689C298.77 256.544 298.273 256.335 297.807 256.094C297.358 255.853 296.989 255.515 296.7 255.113C296.427 254.711 296.283 254.164 296.283 253.505C296.283 252.894 296.443 252.315 296.764 251.801C297.085 251.286 297.583 250.868 298.273 250.547C298.963 250.225 299.814 250.08 300.873 250.08C301.579 250.08 302.269 250.177 302.959 250.37C303.649 250.563 304.243 250.836 304.741 251.174L304.291 252.219C303.762 251.865 303.2 251.608 302.59 251.431C301.996 251.27 301.419 251.174 300.857 251.174C300.119 251.174 299.493 251.27 299.011 251.479C298.53 251.672 298.16 251.946 297.936 252.283C297.711 252.621 297.583 253.007 297.583 253.425C297.583 253.907 297.727 254.309 298 254.599C298.273 254.904 298.642 255.129 299.107 255.29C299.573 255.451 300.07 255.611 300.616 255.74C301.162 255.869 301.707 256.013 302.237 256.174C302.783 256.335 303.28 256.528 303.73 256.769C304.179 257.01 304.548 257.332 304.837 257.734C305.11 258.136 305.254 258.666 305.254 259.326C305.254 259.937 305.094 260.499 304.757 261.014C304.42 261.528 303.922 261.946 303.232 262.268C302.558 262.589 301.675 262.734 300.616 262.734V262.75Z" fill="#F5F5F5"/>
<path d="M311.915 262.638H310.599V250.177H311.915V262.638ZM319.827 256.882H311.77V255.724H319.827V256.882ZM319.699 250.177H320.999V262.638H319.699V250.177Z" fill="#F5F5F5"/>
</g>
<defs>
<clipPath id="clip0_2022_338">
<rect width="322" height="282" fill="white"/>
</clipPath>
</defs>
</svg>
