<svg width="50" height="51" viewBox="0 0 50 51" fill="none" xmlns="http://www.w3.org/2000/svg">
<mask id="path-1-outside-1_2242_45" maskUnits="userSpaceOnUse" x="0" y="0.5" width="50" height="50" fill="black">
<rect fill="white" y="0.5" width="50" height="50"/>
<path d="M35.56 8.22C35.56 7.9654 35.6612 7.72123 35.8412 7.54119C36.0212 7.36116 36.2654 7.26001 36.52 7.26H41.32V2.46C41.32 2.20539 41.4211 1.96121 41.6012 1.78118C41.7812 1.60115 42.0254 1.5 42.28 1.5C42.5346 1.5 42.7788 1.60115 42.9588 1.78118C43.1389 1.96121 43.24 2.20539 43.24 2.46V7.26H48.04C48.2946 7.26 48.5388 7.36114 48.7188 7.54118C48.8989 7.72121 49 7.96539 49 8.22C49 8.47461 48.8989 8.71879 48.7188 8.89882C48.5388 9.07886 48.2946 9.18 48.04 9.18H43.24V13.98C43.24 14.2346 43.1389 14.4788 42.9588 14.6588C42.7788 14.8389 42.5346 14.94 42.28 14.94C42.0254 14.94 41.7812 14.8389 41.6012 14.6588C41.4211 14.4788 41.32 14.2346 41.32 13.98V9.18H36.52C36.2654 9.17999 36.0212 9.07884 35.8412 8.89881C35.6612 8.71878 35.56 8.47461 35.56 8.22ZM48.7032 21.7155C48.9008 22.9673 49.0001 24.2327 49 25.5C49.0014 28.8408 48.3036 32.145 46.9515 35.2C45.5994 38.255 43.6229 40.9933 41.1492 43.2387C41.091 43.3077 41.0233 43.3681 40.948 43.4181C36.5594 47.335 30.8828 49.4999 25.0004 49.5C19.118 49.5001 13.4413 47.3354 9.05254 43.4186C8.97692 43.3684 8.90885 43.3077 8.85039 43.2383C5.26753 39.9804 2.75453 35.7145 1.64185 31.0015C0.529163 26.2884 0.868895 21.349 2.61637 16.8327C4.36384 12.3164 7.43723 8.4347 11.4324 5.69803C15.4275 2.96136 20.1574 1.49787 25 1.5C26.2673 1.49993 27.5327 1.59918 28.7844 1.79684C28.9094 1.8161 29.0293 1.85984 29.1373 1.92555C29.2453 1.99127 29.3392 2.07766 29.4137 2.17978C29.4882 2.28189 29.5418 2.39772 29.5715 2.5206C29.6011 2.64349 29.6062 2.77102 29.5864 2.89587C29.5666 3.02072 29.5223 3.14044 29.4562 3.24814C29.39 3.35585 29.3032 3.44943 29.2008 3.52351C29.0984 3.59759 28.9823 3.65071 28.8593 3.67982C28.7363 3.70894 28.6087 3.71347 28.484 3.69317C27.3316 3.51124 26.1667 3.41991 25 3.42C20.6372 3.41784 16.3717 4.70881 12.7423 7.12983C9.11295 9.55085 6.28257 12.9933 4.60878 17.0222C2.93499 21.0511 2.4929 25.4857 3.33835 29.7658C4.18381 34.0458 6.27888 37.9793 9.35886 41.0692C11.7419 37.0786 15.5653 34.1544 20.0407 32.8996C17.9607 31.7931 16.3104 30.0229 15.3524 27.8704C14.3944 25.7179 14.1837 23.3069 14.7539 21.0209C15.3241 18.7349 16.6423 16.7053 18.499 15.2548C20.3556 13.8044 22.644 13.0165 25 13.0165C27.356 13.0165 29.6444 13.8044 31.501 15.2548C33.3577 16.7053 34.6759 18.7349 35.2461 21.0209C35.8163 23.3069 35.6056 25.7179 34.6476 27.8704C33.6896 30.0229 32.0393 31.7931 29.9593 32.8996C34.4347 34.1544 38.2581 37.0786 40.6411 41.0693C42.6842 39.0241 44.3045 36.5965 45.4093 33.9251C46.514 31.2537 47.0818 28.3908 47.08 25.5C47.0801 24.3334 46.9888 23.1685 46.8068 22.0161C46.767 21.7647 46.8286 21.5077 46.9783 21.3017C47.1279 21.0957 47.3532 20.9575 47.6047 20.9177C47.8562 20.8778 48.1132 20.9395 48.3192 21.0891C48.5252 21.2387 48.6633 21.4641 48.7032 21.7155ZM25 32.22C26.7088 32.22 28.3793 31.7133 29.8001 30.7639C31.221 29.8145 32.3284 28.4651 32.9823 26.8864C33.6363 25.3076 33.8074 23.5704 33.474 21.8944C33.1406 20.2184 32.3177 18.6789 31.1094 17.4706C29.9011 16.2623 28.3616 15.4394 26.6856 15.106C25.0096 14.7726 23.2724 14.9437 21.6936 15.5977C20.1149 16.2516 18.7655 17.359 17.8161 18.7799C16.8667 20.2007 16.36 21.8712 16.36 23.58C16.3626 25.8707 17.2737 28.0668 18.8934 29.6866C20.5132 31.3063 22.7093 32.2174 25 32.22ZM25 47.58C30.1942 47.5845 35.2223 45.7494 39.1924 42.4001C37.7676 39.892 35.7036 37.8063 33.2105 36.3554C30.7175 34.9044 27.8845 34.14 25 34.14C22.1154 34.14 19.2824 34.9044 16.7894 36.3554C14.2964 37.8063 12.2324 39.892 10.8075 42.4001C14.7777 45.7494 19.8057 47.5845 25 47.58Z"/>
</mask>
<path d="M35.56 8.22C35.56 7.9654 35.6612 7.72123 35.8412 7.54119C36.0212 7.36116 36.2654 7.26001 36.52 7.26H41.32V2.46C41.32 2.20539 41.4211 1.96121 41.6012 1.78118C41.7812 1.60115 42.0254 1.5 42.28 1.5C42.5346 1.5 42.7788 1.60115 42.9588 1.78118C43.1389 1.96121 43.24 2.20539 43.24 2.46V7.26H48.04C48.2946 7.26 48.5388 7.36114 48.7188 7.54118C48.8989 7.72121 49 7.96539 49 8.22C49 8.47461 48.8989 8.71879 48.7188 8.89882C48.5388 9.07886 48.2946 9.18 48.04 9.18H43.24V13.98C43.24 14.2346 43.1389 14.4788 42.9588 14.6588C42.7788 14.8389 42.5346 14.94 42.28 14.94C42.0254 14.94 41.7812 14.8389 41.6012 14.6588C41.4211 14.4788 41.32 14.2346 41.32 13.98V9.18H36.52C36.2654 9.17999 36.0212 9.07884 35.8412 8.89881C35.6612 8.71878 35.56 8.47461 35.56 8.22ZM48.7032 21.7155C48.9008 22.9673 49.0001 24.2327 49 25.5C49.0014 28.8408 48.3036 32.145 46.9515 35.2C45.5994 38.255 43.6229 40.9933 41.1492 43.2387C41.091 43.3077 41.0233 43.3681 40.948 43.4181C36.5594 47.335 30.8828 49.4999 25.0004 49.5C19.118 49.5001 13.4413 47.3354 9.05254 43.4186C8.97692 43.3684 8.90885 43.3077 8.85039 43.2383C5.26753 39.9804 2.75453 35.7145 1.64185 31.0015C0.529163 26.2884 0.868895 21.349 2.61637 16.8327C4.36384 12.3164 7.43723 8.4347 11.4324 5.69803C15.4275 2.96136 20.1574 1.49787 25 1.5C26.2673 1.49993 27.5327 1.59918 28.7844 1.79684C28.9094 1.8161 29.0293 1.85984 29.1373 1.92555C29.2453 1.99127 29.3392 2.07766 29.4137 2.17978C29.4882 2.28189 29.5418 2.39772 29.5715 2.5206C29.6011 2.64349 29.6062 2.77102 29.5864 2.89587C29.5666 3.02072 29.5223 3.14044 29.4562 3.24814C29.39 3.35585 29.3032 3.44943 29.2008 3.52351C29.0984 3.59759 28.9823 3.65071 28.8593 3.67982C28.7363 3.70894 28.6087 3.71347 28.484 3.69317C27.3316 3.51124 26.1667 3.41991 25 3.42C20.6372 3.41784 16.3717 4.70881 12.7423 7.12983C9.11295 9.55085 6.28257 12.9933 4.60878 17.0222C2.93499 21.0511 2.4929 25.4857 3.33835 29.7658C4.18381 34.0458 6.27888 37.9793 9.35886 41.0692C11.7419 37.0786 15.5653 34.1544 20.0407 32.8996C17.9607 31.7931 16.3104 30.0229 15.3524 27.8704C14.3944 25.7179 14.1837 23.3069 14.7539 21.0209C15.3241 18.7349 16.6423 16.7053 18.499 15.2548C20.3556 13.8044 22.644 13.0165 25 13.0165C27.356 13.0165 29.6444 13.8044 31.501 15.2548C33.3577 16.7053 34.6759 18.7349 35.2461 21.0209C35.8163 23.3069 35.6056 25.7179 34.6476 27.8704C33.6896 30.0229 32.0393 31.7931 29.9593 32.8996C34.4347 34.1544 38.2581 37.0786 40.6411 41.0693C42.6842 39.0241 44.3045 36.5965 45.4093 33.9251C46.514 31.2537 47.0818 28.3908 47.08 25.5C47.0801 24.3334 46.9888 23.1685 46.8068 22.0161C46.767 21.7647 46.8286 21.5077 46.9783 21.3017C47.1279 21.0957 47.3532 20.9575 47.6047 20.9177C47.8562 20.8778 48.1132 20.9395 48.3192 21.0891C48.5252 21.2387 48.6633 21.4641 48.7032 21.7155ZM25 32.22C26.7088 32.22 28.3793 31.7133 29.8001 30.7639C31.221 29.8145 32.3284 28.4651 32.9823 26.8864C33.6363 25.3076 33.8074 23.5704 33.474 21.8944C33.1406 20.2184 32.3177 18.6789 31.1094 17.4706C29.9011 16.2623 28.3616 15.4394 26.6856 15.106C25.0096 14.7726 23.2724 14.9437 21.6936 15.5977C20.1149 16.2516 18.7655 17.359 17.8161 18.7799C16.8667 20.2007 16.36 21.8712 16.36 23.58C16.3626 25.8707 17.2737 28.0668 18.8934 29.6866C20.5132 31.3063 22.7093 32.2174 25 32.22ZM25 47.58C30.1942 47.5845 35.2223 45.7494 39.1924 42.4001C37.7676 39.892 35.7036 37.8063 33.2105 36.3554C30.7175 34.9044 27.8845 34.14 25 34.14C22.1154 34.14 19.2824 34.9044 16.7894 36.3554C14.2964 37.8063 12.2324 39.892 10.8075 42.4001C14.7777 45.7494 19.8057 47.5845 25 47.58Z" fill="#87C232"/>
<path d="M35.56 8.22L34.56 8.21996V8.22005L35.56 8.22ZM35.8412 7.54119L36.5483 8.2483L36.5483 8.2483L35.8412 7.54119ZM36.52 7.26V6.26H36.5199L36.52 7.26ZM41.32 7.26V8.26H42.32V7.26H41.32ZM43.24 7.26H42.24V8.26H43.24V7.26ZM48.7188 7.54118L48.0117 8.24829V8.24829L48.7188 7.54118ZM48.7188 8.89882L49.4259 9.60593V9.60593L48.7188 8.89882ZM43.24 9.18V8.18H42.24V9.18H43.24ZM41.32 9.18H42.32V8.18H41.32V9.18ZM36.52 9.18L36.5199 10.18H36.52V9.18ZM35.8412 8.89881L36.5483 8.19171L36.5483 8.1917L35.8412 8.89881ZM48.7032 21.7155L49.6909 21.5596L49.6908 21.559L48.7032 21.7155ZM49 25.5L48 25.4999V25.5004L49 25.5ZM46.9515 35.2L46.037 34.7953L46.9515 35.2ZM41.1492 43.2387L40.4771 42.4982L40.4277 42.543L40.3847 42.594L41.1492 43.2387ZM40.948 43.4181L40.3946 42.5852L40.3353 42.6246L40.2822 42.672L40.948 43.4181ZM25.0004 49.5L25.0004 50.5L25.0004 49.5ZM9.05254 43.4186L9.71839 42.6725L9.66496 42.6248L9.60528 42.5852L9.05254 43.4186ZM8.85039 43.2383L9.61518 42.594L9.57234 42.5432L9.52315 42.4984L8.85039 43.2383ZM1.64185 31.0015L0.668602 31.2312L1.64185 31.0015ZM2.61637 16.8327L1.68375 16.4719H1.68375L2.61637 16.8327ZM11.4324 5.69803L11.9975 6.52303L11.4324 5.69803ZM25 1.5L24.9996 2.5H25L25 1.5ZM28.7844 1.79684L28.6285 2.78461L28.6321 2.78517L28.7844 1.79684ZM29.1373 1.92555L28.6174 2.7798V2.7798L29.1373 1.92555ZM29.4137 2.17978L30.2215 1.59035L30.2215 1.59034L29.4137 2.17978ZM29.5715 2.5206L30.5436 2.2862L30.5436 2.28618L29.5715 2.5206ZM29.4562 3.24814L28.6041 2.7247V2.7247L29.4562 3.24814ZM29.2008 3.52351L28.6148 2.71322L28.6148 2.71322L29.2008 3.52351ZM28.484 3.69317L28.6446 2.70614L28.6399 2.7054L28.484 3.69317ZM25 3.42L24.9995 4.42L25.0001 4.42L25 3.42ZM12.7423 7.12983L13.2973 7.96173V7.96173L12.7423 7.12983ZM4.60878 17.0222L5.53226 17.4058L4.60878 17.0222ZM3.33835 29.7658L4.3194 29.572L3.33835 29.7658ZM9.35886 41.0692L8.65063 41.7752L9.55826 42.6857L10.2174 41.5819L9.35886 41.0692ZM20.0407 32.8996L20.3107 33.8624L22.7136 33.1887L20.5104 32.0167L20.0407 32.8996ZM14.7539 21.0209L15.7242 21.2629L15.7242 21.2629L14.7539 21.0209ZM18.499 15.2548L17.8833 14.4668V14.4668L18.499 15.2548ZM31.501 15.2548L32.1166 14.4668L31.501 15.2548ZM35.2461 21.0209L36.2164 20.7789L35.2461 21.0209ZM34.6476 27.8704L35.5612 28.277H35.5612L34.6476 27.8704ZM29.9593 32.8996L29.4896 32.0167L27.2863 33.1887L29.6893 33.8624L29.9593 32.8996ZM40.6411 41.0693L39.7826 41.582L40.441 42.6846L41.3486 41.7761L40.6411 41.0693ZM45.4093 33.9251L46.3333 34.3073L45.4093 33.9251ZM47.08 25.5L46.08 25.4999V25.5006L47.08 25.5ZM46.8068 22.0161L47.7946 21.8602L47.7945 21.8596L46.8068 22.0161ZM46.9783 21.3017L47.7874 21.8894L47.7874 21.8893L46.9783 21.3017ZM47.6047 20.9177L47.4481 19.93H47.4481L47.6047 20.9177ZM48.3192 21.0891L47.7315 21.8982L47.7315 21.8982L48.3192 21.0891ZM25 32.22L24.9989 33.22H25V32.22ZM29.8001 30.7639L29.2446 29.9324V29.9324L29.8001 30.7639ZM32.9823 26.8864L32.0584 26.5037L32.9823 26.8864ZM33.474 21.8944L34.4548 21.6993V21.6993L33.474 21.8944ZM31.1094 17.4706L31.8165 16.7635H31.8165L31.1094 17.4706ZM26.6856 15.106L26.4905 16.0868H26.4905L26.6856 15.106ZM21.6936 15.5977L21.3109 14.6738L21.6936 15.5977ZM17.8161 18.7799L18.6476 19.3354H18.6476L17.8161 18.7799ZM16.36 23.58H15.36L15.36 23.5811L16.36 23.58ZM25 47.58L25.0009 46.58H24.9991L25 47.58ZM39.1924 42.4001L39.8372 43.1644L40.4723 42.6286L40.0619 41.9061L39.1924 42.4001ZM33.2105 36.3554L32.7075 37.2196H32.7075L33.2105 36.3554ZM16.7894 36.3554L17.2924 37.2196L16.7894 36.3554ZM10.8075 42.4001L9.93805 41.9061L9.5276 42.6286L10.1627 43.1644L10.8075 42.4001ZM36.56 8.22005C36.56 8.23065 36.5558 8.24081 36.5483 8.2483L35.1341 6.83408C34.7665 7.20164 34.56 7.70015 34.56 8.21996L36.56 8.22005ZM36.5483 8.2483C36.5408 8.25579 36.5306 8.26 36.52 8.26L36.5199 6.26C36.0001 6.26003 35.5016 6.46653 35.1341 6.83409L36.5483 8.2483ZM36.52 8.26H41.32V6.26H36.52V8.26ZM42.32 7.26V2.46H40.32V7.26H42.32ZM42.32 2.46C42.32 2.47061 42.3158 2.48079 42.3083 2.48829L40.8941 1.07407C40.5265 1.44164 40.32 1.94018 40.32 2.46H42.32ZM42.3083 2.48829C42.3008 2.49579 42.2906 2.5 42.28 2.5V0.500002C41.7602 0.500002 41.2616 0.706503 40.8941 1.07407L42.3083 2.48829ZM42.28 2.5C42.2694 2.5 42.2592 2.49579 42.2517 2.48829L43.6659 1.07407C43.2984 0.7065 42.7998 0.500002 42.28 0.500002V2.5ZM42.2517 2.48829C42.2442 2.48079 42.24 2.47061 42.24 2.46H44.24C44.24 1.94018 44.0335 1.44164 43.6659 1.07407L42.2517 2.48829ZM42.24 2.46V7.26H44.24V2.46H42.24ZM43.24 8.26H48.04V6.26H43.24V8.26ZM48.04 8.26C48.0294 8.26 48.0192 8.25579 48.0117 8.24829L49.4259 6.83407C49.0584 6.4665 48.5598 6.26 48.04 6.26V8.26ZM48.0117 8.24829C48.0042 8.24079 48 8.23061 48 8.22H50C50 7.70018 49.7935 7.20164 49.4259 6.83407L48.0117 8.24829ZM48 8.22C48 8.20939 48.0042 8.19922 48.0117 8.19172L49.4259 9.60593C49.7935 9.23836 50 8.73983 50 8.22H48ZM48.0117 8.19172C48.0192 8.18422 48.0294 8.18 48.04 8.18V10.18C48.5598 10.18 49.0584 9.9735 49.4259 9.60593L48.0117 8.19172ZM48.04 8.18H43.24V10.18H48.04V8.18ZM42.24 9.18V13.98H44.24V9.18H42.24ZM42.24 13.98C42.24 13.9694 42.2442 13.9592 42.2517 13.9517L43.6659 15.3659C44.0335 14.9984 44.24 14.4998 44.24 13.98H42.24ZM42.2517 13.9517C42.2592 13.9442 42.2694 13.94 42.28 13.94V15.94C42.7998 15.94 43.2984 15.7335 43.6659 15.3659L42.2517 13.9517ZM42.28 13.94C42.2906 13.94 42.3008 13.9442 42.3083 13.9517L40.8941 15.3659C41.2616 15.7335 41.7602 15.94 42.28 15.94V13.94ZM42.3083 13.9517C42.3158 13.9592 42.32 13.9694 42.32 13.98H40.32C40.32 14.4998 40.5265 14.9984 40.8941 15.3659L42.3083 13.9517ZM42.32 13.98V9.18H40.32V13.98H42.32ZM41.32 8.18H36.52V10.18H41.32V8.18ZM36.52 8.18C36.5306 8.18 36.5408 8.18421 36.5483 8.19171L35.1341 9.60592C35.5016 9.97347 36.0001 10.18 36.5199 10.18L36.52 8.18ZM36.5483 8.1917C36.5558 8.19919 36.56 8.20936 36.56 8.21996L34.56 8.22005C34.56 8.73985 34.7665 9.23836 35.1341 9.60592L36.5483 8.1917ZM47.7154 21.8715C47.9049 23.0717 48.0001 24.2849 48 25.4999L50 25.5001C50.0001 24.1805 49.8968 22.863 49.6909 21.5596L47.7154 21.8715ZM48 25.5004C48.0013 28.7017 47.3327 31.8679 46.037 34.7953L47.8659 35.6047C49.2745 32.4221 50.0014 28.98 50 25.4996L48 25.5004ZM46.037 34.7953C44.7414 37.7227 42.8475 40.3466 40.4771 42.4982L41.8213 43.9791C44.3984 41.6399 46.4574 38.7873 47.8659 35.6047L46.037 34.7953ZM40.3847 42.594C40.3876 42.5906 40.3909 42.5876 40.3946 42.5852L41.5015 44.251C41.6556 44.1486 41.7944 44.0248 41.9137 43.8833L40.3847 42.594ZM40.2822 42.672C36.0768 46.4254 30.6372 48.4999 25.0004 48.5L25.0004 50.5C31.1284 50.4999 37.0421 48.2446 41.6139 44.1642L40.2822 42.672ZM25.0004 48.5C19.3636 48.5001 13.9239 46.4257 9.71839 42.6725L8.38668 44.1646C12.9587 48.245 18.8724 50.5001 25.0004 50.5L25.0004 48.5ZM9.60528 42.5852C9.60897 42.5877 9.61231 42.5906 9.61518 42.594L8.0856 43.8826C8.20539 44.0248 8.34487 44.1492 8.49979 44.2519L9.60528 42.5852ZM9.52315 42.4984C6.08964 39.3764 3.68139 35.2883 2.61509 30.7717L0.668602 31.2312C1.82767 36.1407 4.44542 40.5845 8.17763 43.9782L9.52315 42.4984ZM2.61509 30.7717C1.54879 26.2551 1.87436 21.5216 3.54899 17.1936L1.68375 16.4719C-0.136571 21.1764 -0.490464 26.3218 0.668602 31.2312L2.61509 30.7717ZM3.54899 17.1936C5.22362 12.8655 8.16889 9.14563 11.9975 6.52303L10.8673 4.87302C6.70556 7.72377 3.50406 11.7673 1.68375 16.4719L3.54899 17.1936ZM11.9975 6.52303C15.8261 3.90044 20.3588 2.49796 24.9996 2.5L25.0004 0.500002C19.956 0.497777 15.029 2.02227 10.8673 4.87302L11.9975 6.52303ZM25 2.5C26.2151 2.49994 27.4283 2.59509 28.6285 2.7846L28.9404 0.809077C27.637 0.603272 26.3195 0.499931 24.9999 0.500002L25 2.5ZM28.6321 2.78517C28.6269 2.78437 28.6219 2.78254 28.6174 2.7798L29.6571 1.0713C29.4367 0.937131 29.1919 0.847827 28.9368 0.808511L28.6321 2.78517ZM28.6174 2.7798C28.6129 2.77706 28.609 2.77345 28.6059 2.76922L30.2215 1.59034C30.0694 1.38187 29.8776 1.20548 29.6571 1.0713L28.6174 2.7798ZM28.6059 2.76921C28.6028 2.76496 28.6006 2.76015 28.5993 2.75502L30.5436 2.28618C30.4831 2.03529 30.3736 1.79882 30.2215 1.59035L28.6059 2.76921ZM28.5993 2.75501C28.5981 2.74988 28.5979 2.74456 28.5987 2.73937L30.574 3.05237C30.6144 2.79747 30.6041 2.5371 30.5436 2.2862L28.5993 2.75501ZM28.5987 2.73937C28.5995 2.73417 28.6014 2.72919 28.6041 2.7247L30.3082 3.77159C30.4433 3.55168 30.5337 3.30727 30.574 3.05237L28.5987 2.73937ZM28.6041 2.7247C28.6069 2.72021 28.6105 2.71631 28.6148 2.71322L29.7868 4.33379C29.996 4.18254 30.1731 3.99149 30.3082 3.77159L28.6041 2.7247ZM28.6148 2.71322C28.619 2.71013 28.6239 2.70792 28.629 2.70671L29.0896 4.65294C29.3408 4.5935 29.5777 4.48504 29.7868 4.33379L28.6148 2.71322ZM28.629 2.70671C28.6341 2.7055 28.6394 2.70531 28.6446 2.70615L28.3233 4.68018C28.5781 4.72164 28.8385 4.71238 29.0896 4.65294L28.629 2.70671ZM28.6399 2.7054C27.4359 2.51533 26.2188 2.4199 24.9999 2.42L25.0001 4.42C26.1145 4.41991 27.2272 4.50716 28.328 4.68093L28.6399 2.7054ZM25.0005 2.42C20.44 2.41774 15.9812 3.76721 12.1874 6.29793L13.2973 7.96173C16.7622 5.65042 20.8344 4.41793 24.9995 4.42L25.0005 2.42ZM12.1874 6.29793C8.39357 8.82865 5.43493 12.4271 3.6853 16.6385L5.53226 17.4058C7.1302 13.5595 9.83233 10.273 13.2973 7.96173L12.1874 6.29793ZM3.6853 16.6385C1.93567 20.85 1.47354 25.4856 2.35731 29.9596L4.3194 29.572C3.51225 25.4859 3.93431 21.2522 5.53226 17.4058L3.6853 16.6385ZM2.35731 29.9596C3.24107 34.4336 5.43107 38.5453 8.65063 41.7752L10.0671 40.3632C7.12668 37.4133 5.12654 33.6581 4.3194 29.572L2.35731 29.9596ZM10.2174 41.5819C12.4692 37.8112 16.0819 35.0481 20.3107 33.8624L19.7708 31.9367C15.0487 33.2607 11.0147 36.346 8.5003 40.5565L10.2174 41.5819ZM20.5104 32.0167C18.6273 31.015 17.1333 29.4124 16.266 27.4638L14.4388 28.277C15.4875 30.6333 17.2941 32.5712 19.5711 33.7824L20.5104 32.0167ZM16.266 27.4638C15.3987 25.5151 15.208 23.3324 15.7242 21.2629L13.7836 20.7789C13.1595 23.2814 13.3901 25.9207 14.4388 28.277L16.266 27.4638ZM15.7242 21.2629C16.2404 19.1934 17.4338 17.356 19.1146 16.0429L17.8833 14.4668C15.8509 16.0546 14.4078 18.2765 13.7836 20.7789L15.7242 21.2629ZM19.1146 16.0429C20.7954 14.7298 22.8671 14.0165 25 14.0165V12.0165C22.4209 12.0165 19.9158 12.879 17.8833 14.4668L19.1146 16.0429ZM25 14.0165C27.1329 14.0165 29.2046 14.7298 30.8854 16.0429L32.1166 14.4668C30.0842 12.879 27.5791 12.0165 25 12.0165V14.0165ZM30.8854 16.0429C32.5662 17.356 33.7596 19.1934 34.2758 21.2629L36.2164 20.7789C35.5922 18.2765 34.1491 16.0546 32.1166 14.4668L30.8854 16.0429ZM34.2758 21.2629C34.792 23.3324 34.6013 25.5151 33.734 27.4638L35.5612 28.277C36.6099 25.9207 36.8405 23.2814 36.2164 20.7789L34.2758 21.2629ZM33.734 27.4638C32.8667 29.4124 31.3727 31.015 29.4896 32.0167L30.4289 33.7824C32.7059 32.5712 34.5125 30.6333 35.5612 28.277L33.734 27.4638ZM29.6893 33.8624C33.9181 35.0481 37.5308 37.8112 39.7826 41.582L41.4997 40.5566C38.9854 36.346 34.9513 33.2607 30.2292 31.9367L29.6893 33.8624ZM41.3486 41.7761C43.4845 39.638 45.1784 37.1001 46.3333 34.3073L44.4852 33.543C43.4306 36.093 41.884 38.4103 39.9337 40.3626L41.3486 41.7761ZM46.3333 34.3073C47.4883 31.5145 48.0818 28.5216 48.08 25.4994L46.08 25.5006C46.0817 28.2601 45.5398 30.9929 44.4852 33.543L46.3333 34.3073ZM48.08 25.5001C48.0801 24.2812 47.9847 23.0642 47.7946 21.8602L45.8191 22.1721C45.9929 23.2728 46.0801 24.3855 46.08 25.4999L48.08 25.5001ZM47.7945 21.8596C47.7962 21.8701 47.7936 21.8808 47.7874 21.8894L46.1692 20.714C45.8637 21.1346 45.7378 21.6593 45.8192 22.1727L47.7945 21.8596ZM47.7874 21.8893C47.7811 21.8979 47.7717 21.9037 47.7613 21.9053L47.4481 19.93C46.9347 20.0114 46.4747 20.2934 46.1692 20.714L47.7874 21.8893ZM47.7613 21.9053C47.7508 21.907 47.7401 21.9044 47.7315 21.8982L48.9069 20.28C48.4863 19.9745 47.9616 19.8486 47.4481 19.93L47.7613 21.9053ZM47.7315 21.8982C47.7229 21.892 47.7172 21.8826 47.7155 21.8721L49.6908 21.559C49.6094 21.0456 49.3274 20.5855 48.9069 20.28L47.7315 21.8982ZM25 33.22C26.9066 33.22 28.7704 32.6546 30.3557 31.5954L29.2446 29.9324C27.9882 30.7719 26.511 31.22 25 31.22V33.22ZM30.3557 31.5954C31.941 30.5361 33.1766 29.0305 33.9062 27.2691L32.0584 26.5037C31.4802 27.8997 30.5009 29.0929 29.2446 29.9324L30.3557 31.5954ZM33.9062 27.2691C34.6358 25.5076 34.8267 23.5693 34.4548 21.6993L32.4932 22.0895C32.788 23.5715 32.6367 25.1077 32.0584 26.5037L33.9062 27.2691ZM34.4548 21.6993C34.0828 19.8294 33.1647 18.1117 31.8165 16.7635L30.4023 18.1777C31.4708 19.2462 32.1984 20.6075 32.4932 22.0895L34.4548 21.6993ZM31.8165 16.7635C30.4683 15.4153 28.7506 14.4972 26.8807 14.1252L26.4905 16.0868C27.9725 16.3816 29.3338 17.1092 30.4023 18.1777L31.8165 16.7635ZM26.8807 14.1252C25.0107 13.7533 23.0724 13.9442 21.3109 14.6738L22.0763 16.5216C23.4723 15.9433 25.0085 15.792 26.4905 16.0868L26.8807 14.1252ZM21.3109 14.6738C19.5494 15.4034 18.0439 16.639 16.9846 18.2243L18.6476 19.3354C19.4871 18.0791 20.6803 17.0998 22.0763 16.5216L21.3109 14.6738ZM16.9846 18.2243C15.9254 19.8096 15.36 21.6734 15.36 23.58H17.36C17.36 22.069 17.8081 20.5918 18.6476 19.3354L16.9846 18.2243ZM15.36 23.5811C15.3629 26.1366 16.3793 28.5866 18.1863 30.3937L19.6006 28.9794C18.1681 27.547 17.3623 25.6047 17.36 23.5789L15.36 23.5811ZM18.1863 30.3937C19.9934 32.2007 22.4434 33.2171 24.9989 33.22L25.0011 31.22C22.9753 31.2177 21.033 30.4119 19.6006 28.9794L18.1863 30.3937ZM24.9991 48.58C30.4297 48.5848 35.6865 46.6661 39.8372 43.1644L38.5476 41.6357C34.7581 44.8327 29.9588 46.5843 25.0009 46.58L24.9991 48.58ZM40.0619 41.9061C38.5498 39.2444 36.3593 37.0309 33.7136 35.4911L32.7075 37.2196C35.0478 38.5817 36.9854 40.5396 38.3229 42.894L40.0619 41.9061ZM33.7136 35.4911C31.0678 33.9512 28.0612 33.14 25 33.14V35.14C27.7078 35.14 30.3672 35.8576 32.7075 37.2196L33.7136 35.4911ZM25 33.14C21.9387 33.14 18.9321 33.9512 16.2864 35.4911L17.2924 37.2196C19.6327 35.8576 22.2922 35.14 25 35.14V33.14ZM16.2864 35.4911C13.6406 37.0309 11.4502 39.2444 9.93805 41.9061L11.677 42.894C13.0146 40.5396 14.9521 38.5817 17.2924 37.2196L16.2864 35.4911ZM10.1627 43.1644C14.3135 46.6661 19.5703 48.5848 25.0009 48.58L24.9991 46.58C20.0412 46.5843 15.2419 44.8327 11.4524 41.6357L10.1627 43.1644Z" fill="#87C232" mask="url(#path-1-outside-1_2242_45)"/>
</svg>
