<svg width="48" height="48" viewBox="0 0 48 48" fill="none" xmlns="http://www.w3.org/2000/svg">
<circle cx="24" cy="24" r="24" fill="#4A82DF" fill-opacity="0.35"/>
<g clip-path="url(#clip0_2335_239)">
<path d="M27.1275 36C23.4743 35.8594 20.7856 34.1877 19.1227 30.891C19.0023 30.6519 19.0109 30.6425 19.2696 30.5954C22.2799 30.0467 24.5621 27.6288 24.876 24.5646C25.1172 22.211 24.3139 20.2289 22.5624 18.6429C22.4457 18.5376 22.411 18.4703 22.5146 18.3272C23.9996 16.2779 25.478 14.2236 26.9589 12.171C27.1242 11.9418 27.1279 11.9422 27.2977 12.178C29.1928 14.8063 31.0921 17.4317 32.9803 20.0649C33.6318 20.9736 34.3404 21.8436 34.8894 22.8228C35.5155 23.9401 35.8796 25.1403 35.9739 26.4221C36.1347 28.6071 35.5347 30.5831 34.273 32.3421C32.8125 34.3787 30.8145 35.5625 28.3336 35.9086C27.9361 35.9639 27.536 35.9971 27.1266 35.9996L27.1275 36ZM27.7124 30.7044C27.712 30.2747 27.3634 29.9225 26.9385 29.9225C26.5046 29.9225 26.1568 30.2616 26.1499 30.6921C26.1429 31.1247 26.5034 31.4987 26.927 31.4987C27.365 31.4987 27.7128 31.1473 27.7124 30.7048V30.7044ZM30.1247 33.1388C30.1255 32.7025 29.7871 32.3528 29.3586 32.347C28.9312 32.3413 28.5802 32.6886 28.5757 33.1216C28.5712 33.5677 28.9157 33.9236 29.3516 33.9236C29.7769 33.9236 30.1235 33.5718 30.1247 33.1384V33.1388ZM26.4948 33.9322C26.4915 33.489 26.1548 33.1552 25.7164 33.1613C25.2858 33.1671 24.9429 33.5173 24.9462 33.9482C24.9494 34.3955 25.2992 34.7408 25.7417 34.7338C26.1686 34.7268 26.498 34.3763 26.4948 33.9322Z" fill="#4A82DF"/>
<path d="M18.0871 29.9258C14.7327 29.9258 12.0004 27.1909 12 23.8327C11.9996 20.4631 14.7356 17.7286 18.0969 17.7257C21.2775 17.7228 24.1555 20.2896 24.1584 23.8221C24.1612 27.3975 21.2183 29.9623 18.0876 29.9262L18.0871 29.9258ZM13.678 23.829C13.678 25.3941 14.9132 26.6291 16.4822 26.632C18.0231 26.6349 19.2643 25.383 19.2643 23.8253C19.2643 22.2623 18.021 21.0195 16.4577 21.0207C14.9136 21.0219 13.6776 22.2705 13.6776 23.829H13.678ZM21.0958 27.0408C21.0958 27.0408 21.0958 27.0396 21.0958 27.0388C21.4358 27.0388 21.7763 27.0453 22.1159 27.0363C22.3342 27.0306 22.4767 26.8809 22.4857 26.6767C22.4951 26.4614 22.3579 26.306 22.1314 26.2794C22.0775 26.2732 22.0228 26.2749 21.9685 26.274C21.6991 26.2704 21.6909 26.2589 21.8297 26.019C22.013 25.7029 22.0914 25.363 22.082 24.9993C22.0665 24.3932 21.5926 23.8959 20.9881 23.8544C20.3803 23.8126 19.837 24.2337 19.7354 24.8258C19.7272 24.8726 19.7239 24.9209 19.7227 24.9685C19.715 25.2297 19.8452 25.4007 20.0648 25.4195C20.2807 25.438 20.4391 25.2912 20.4811 25.0333C20.526 24.7565 20.7027 24.5991 20.9436 24.6208C21.1844 24.6425 21.3277 24.8311 21.3199 25.1153C21.3028 25.7262 20.7991 26.2191 20.1354 26.2745C19.8615 26.2974 19.7121 26.4442 19.7235 26.68C19.7341 26.9022 19.8925 27.0363 20.1582 27.0392C20.4709 27.0424 20.784 27.04 21.0966 27.04L21.0958 27.0408Z" fill="#4A82DF"/>
<path d="M14.4399 23.829C14.4403 22.6883 15.3396 21.7858 16.4747 21.787C17.6086 21.7883 18.5021 22.6912 18.5025 23.8356C18.5025 24.9599 17.5996 25.866 16.4776 25.8681C15.3441 25.8701 14.4395 24.9652 14.4403 23.8286L14.4399 23.829Z" fill="#4A82DF"/>
</g>
<defs>
<clipPath id="clip0_2335_239">
<rect width="24" height="24" fill="white" transform="translate(12 12)"/>
</clipPath>
</defs>
</svg>
