<svg width="24" height="25" viewBox="0 0 24 25" fill="none" xmlns="http://www.w3.org/2000/svg">
<path fill-rule="evenodd" clip-rule="evenodd" d="M1.97519 8.67837L2.74942 8.67837C3.11805 8.67837 3.41111 8.97938 3.47393 9.34274C3.61012 10.1301 3.98622 10.8625 4.5588 11.435C5.28992 12.1661 6.28152 12.5769 7.31545 12.5769C8.34944 12.5769 9.34105 12.1661 10.0721 11.435C10.6447 10.8625 11.0208 10.1301 11.157 9.34274C11.2198 8.97938 11.5128 8.67837 11.8815 8.67837H12.656V2.67027C12.656 2.30158 12.3571 2.0027 11.9884 2.0027H11.8098C11.5789 2.40177 11.1475 2.67027 10.6533 2.67027C9.91589 2.67027 9.31815 2.07251 9.31815 1.33513C9.31815 0.59776 9.91589 0 10.6533 0C11.1475 0 11.5789 0.268496 11.8098 0.667567H11.9884C13.0945 0.667567 13.9911 1.56421 13.9911 2.67027V8.67837C14.3598 8.67837 14.6619 8.97791 14.6284 9.34507C14.4732 11.0482 13.727 12.6517 12.5079 13.8708C11.614 14.7648 10.5132 15.4044 9.31815 15.7432V17.3567C9.31815 18.2286 8.76106 18.9703 7.98342 19.2454C8.01165 21.1566 9.56976 22.6973 11.4877 22.6973C13.4234 22.6973 14.9925 21.1282 14.9925 19.1926V16.5223C14.9925 14.4024 16.7111 12.6838 18.831 12.6838C20.9509 12.6838 22.6695 14.4024 22.6695 16.5223V18.1383C23.4473 18.4132 24.0046 19.155 24.0046 20.027C24.0046 21.1331 23.108 22.0297 22.0019 22.0297C20.8958 22.0297 19.9992 21.1331 19.9992 20.027C19.9992 19.155 20.5565 18.4132 21.3344 18.1383V16.5223C21.3344 15.1397 20.2136 14.0189 18.831 14.0189C17.4484 14.0189 16.3276 15.1397 16.3276 16.5223V19.1926C16.3276 21.8656 14.1607 24.0324 11.4877 24.0324C8.83249 24.0324 6.67659 21.8941 6.64815 19.2456C5.87017 18.9707 5.31275 18.2289 5.31275 17.3567V15.7432C4.11767 15.4044 3.01698 14.7648 2.12302 13.8708C0.90392 12.6517 0.15774 11.0482 0.00253712 9.34507C-0.0309213 8.97791 0.271093 8.67837 0.639777 8.67837L0.640051 8.67837V2.67027C0.640051 1.56421 1.53669 0.667567 2.64275 0.667567H2.82139C3.05224 0.268496 3.48369 0 3.97789 0C4.71528 0 5.31302 0.59776 5.31302 1.33513C5.31302 2.07251 4.71528 2.67027 3.97789 2.67027C3.48369 2.67027 3.05224 2.40177 2.82139 2.0027H2.64275C2.27407 2.0027 1.97519 2.30158 1.97519 2.67027V8.67837ZM13.1733 10.0135H12.3759C12.1418 10.9008 11.6763 11.719 11.0162 12.3791C10.0347 13.3606 8.70352 13.912 7.31545 13.912C5.92744 13.912 4.59625 13.3606 3.61472 12.3791C2.95463 11.719 2.4891 10.9008 2.25498 10.0135H1.45756C1.70706 11.1081 2.26061 12.1203 3.06712 12.9268C4.19384 14.0535 5.72203 14.6865 7.31545 14.6865C8.90893 14.6865 10.4371 14.0535 11.5638 12.9268C12.3703 12.1203 12.9239 11.1081 13.1733 10.0135ZM22.6695 20.027C22.6695 19.6583 22.3706 19.3594 22.0019 19.3594C21.6332 19.3594 21.3344 19.6583 21.3344 20.027C21.3344 20.3957 21.6332 20.6946 22.0019 20.6946C22.3706 20.6946 22.6695 20.3957 22.6695 20.027ZM7.98302 17.3567V16.0216H6.64788V17.3567C6.64788 17.7254 6.94675 18.0243 7.31545 18.0243C7.68414 18.0243 7.98302 17.7254 7.98302 17.3567Z" fill="#F5B041"/>
</svg>
