<svg width="25" height="24" viewBox="0 0 25 24" fill="none" xmlns="http://www.w3.org/2000/svg">
<mask id="path-1-inside-1_2031_1717" fill="white">
<path fill-rule="evenodd" clip-rule="evenodd" d="M2.06228 14.9158C2.49148 14.9158 2.83982 14.5674 2.83982 14.1382C2.83982 12.638 4.06094 11.4169 5.56119 11.4169C5.66888 11.4169 5.84227 11.4433 6.02499 11.4798V12.1944C6.02499 12.6236 6.37333 12.9719 6.80253 12.9719C7.23173 12.9719 7.58007 12.6236 7.58007 12.1944V10.9429C7.99721 8.51197 10.0822 6.75163 12.559 6.75163C15.0355 6.75163 17.1204 8.51198 17.538 10.9433V12.1944C17.538 12.6236 17.8863 12.9719 18.3155 12.9719C18.7447 12.9719 19.093 12.6236 19.093 12.1944V11.4798C19.2758 11.4433 19.4492 11.4169 19.5568 11.4169C21.0571 11.4169 22.2782 12.638 22.2782 14.1382C22.2782 14.5674 22.6262 14.9158 23.0558 14.9158C23.485 14.9158 23.8333 14.5674 23.8333 14.1382C23.8333 12.2185 22.5612 10.5907 20.8165 10.0515C21.9567 9.03953 22.667 7.56532 22.667 5.9741C22.667 5.5449 22.3187 5.19656 21.8895 5.19656C19.7458 5.19656 18.0018 3.45255 18.0018 1.30888C18.0018 0.879678 17.6534 0.531342 17.2242 0.531342C14.4725 0.531342 12.1971 2.58559 11.8371 5.23971C9.17479 5.52662 6.96426 7.37366 6.21743 9.93331C5.9935 9.89249 5.7583 9.86178 5.56119 9.86178C3.20331 9.86178 1.28474 11.7803 1.28474 14.1382C1.28474 14.5674 1.63269 14.9158 2.06228 14.9158ZM16.512 2.15173C16.8751 4.4785 18.7183 6.32243 21.0451 6.68632C20.806 7.94826 19.941 9.02126 18.7661 9.53444C17.9283 7.22204 15.8709 5.56667 13.4042 5.25488C13.6993 3.68464 14.9406 2.44408 16.512 2.15173ZM9.449 17.2484C9.449 17.6776 9.79694 18.0259 10.2265 18.0259H24.2222C24.6514 18.0259 24.9997 17.6776 24.9997 17.2484C24.9997 16.8192 24.6514 16.4708 24.2222 16.4708H10.2265C9.79694 16.4708 9.449 16.8192 9.449 17.2484ZM11.7813 19.9698C11.7813 19.5406 12.1292 19.1922 12.5588 19.1922H23.0555C23.4847 19.1922 23.8331 19.5406 23.8331 19.9698C23.8331 20.399 23.4847 20.7473 23.0555 20.7473H12.5588C12.1292 20.7473 11.7813 20.399 11.7813 19.9698ZM24.2219 21.9136H14.8915C14.4619 21.9136 14.114 22.2619 14.114 22.6911C14.114 23.1203 14.4619 23.4687 14.8915 23.4687H24.2219C24.6511 23.4687 24.9995 23.1203 24.9995 22.6911C24.9995 22.2619 24.6511 21.9136 24.2219 21.9136ZM7.89353 18.0259H0.8957C0.466112 18.0259 0.118164 17.6776 0.118164 17.2484C0.118164 16.8192 0.466112 16.4708 0.8957 16.4708H7.89353C8.32273 16.4708 8.67106 16.8192 8.67106 17.2484C8.67106 17.6776 8.32273 18.0259 7.89353 18.0259ZM2.06228 19.1922C1.63269 19.1922 1.28474 19.5406 1.28474 19.9698C1.28474 20.399 1.63269 20.7473 2.06228 20.7473H10.2264C10.6556 20.7473 11.0039 20.399 11.0039 19.9698C11.0039 19.5406 10.6556 19.1922 10.2264 19.1922H2.06228ZM0.8957 21.9136H12.5587C12.9879 21.9136 13.3363 22.2619 13.3363 22.6911C13.3363 23.1203 12.9879 23.4687 12.5587 23.4687H0.8957C0.466112 23.4687 0.118164 23.1203 0.118164 22.6911C0.118164 22.2619 0.466112 21.9136 0.8957 21.9136Z"/>
</mask>
<path d="M6.02499 11.4798H14.3583V4.64812L7.65928 3.30832L6.02499 11.4798ZM7.58007 10.9429L-0.633221 9.53356L-0.753267 10.2331V10.9429H7.58007ZM17.538 10.9433H25.8713V10.233L25.7511 9.53289L17.538 10.9433ZM19.093 11.4798L17.4588 3.30832L10.7597 4.64812V11.4798H19.093ZM20.8165 10.0515L15.285 3.81875L4.2151 13.6431L18.3559 18.0133L20.8165 10.0515ZM11.8371 5.23971L12.73 13.5251L19.2177 12.8259L20.0948 6.35977L11.8371 5.23971ZM6.21743 9.93331L4.72299 18.1315L12.1132 19.4787L14.2172 12.2674L6.21743 9.93331ZM21.0451 6.68632L29.2327 8.2376L30.8346 -0.217306L22.3327 -1.54694L21.0451 6.68632ZM16.512 2.15173L24.7457 0.866806L23.4228 -7.61032L14.9878 -6.04102L16.512 2.15173ZM18.7661 9.53444L10.9311 12.3731L13.9582 20.7281L22.1017 17.1711L18.7661 9.53444ZM13.4042 5.25488L5.21422 3.71583L3.57992 12.4127L12.3592 13.5224L13.4042 5.25488ZM-5.49352 14.1382C-5.49352 9.96505 -2.11089 6.58243 2.06228 6.58243V23.2491C7.09385 23.2491 11.1731 19.1698 11.1731 14.1382H-5.49352ZM5.56119 3.08352C-0.541437 3.08352 -5.49352 8.0356 -5.49352 14.1382H11.1731C11.1731 17.2403 8.66331 19.7502 5.56119 19.7502V3.08352ZM7.65928 3.30832C7.47582 3.27163 6.5787 3.08352 5.56119 3.08352V19.7502C5.2686 19.7502 5.04072 19.7333 4.91447 19.7221C4.77753 19.7099 4.67156 19.6962 4.60691 19.6871C4.48203 19.6696 4.40531 19.6543 4.39071 19.6513L7.65928 3.30832ZM14.3583 12.1944V11.4798H-2.30834V12.1944H14.3583ZM6.80253 4.63859C10.9757 4.63859 14.3583 8.02121 14.3583 12.1944H-2.30834C-2.30834 17.226 1.77096 21.3053 6.80253 21.3053V4.63859ZM-0.753267 12.1944C-0.753267 8.02121 2.62936 4.63859 6.80253 4.63859V21.3053C11.8341 21.3053 15.9134 17.226 15.9134 12.1944H-0.753267ZM-0.753267 10.9429V12.1944H15.9134V10.9429H-0.753267ZM12.559 -1.5817C6.02766 -1.5817 0.471019 3.09851 -0.633221 9.53356L15.7934 12.3523C15.5234 13.9254 14.1367 15.085 12.559 15.085V-1.5817ZM25.7511 9.53289C24.6462 3.09933 19.091 -1.5817 12.559 -1.5817V15.085C10.98 15.085 9.59463 13.9246 9.32487 12.3538L25.7511 9.53289ZM25.8713 12.1944V10.9433H9.20464V12.1944H25.8713ZM18.3155 4.63859C22.4887 4.63859 25.8713 8.02122 25.8713 12.1944H9.20464C9.20464 17.226 13.2839 21.3053 18.3155 21.3053V4.63859ZM10.7597 12.1944C10.7597 8.02121 14.1423 4.63859 18.3155 4.63859V21.3053C23.3471 21.3053 27.4264 17.226 27.4264 12.1944H10.7597ZM10.7597 11.4798V12.1944H27.4264V11.4798H10.7597ZM19.5568 3.08352C18.5393 3.08352 17.6422 3.27163 17.4588 3.30832L20.7273 19.6513C20.7127 19.6543 20.636 19.6696 20.5111 19.6871C20.4465 19.6962 20.3405 19.7099 20.2036 19.7221C20.0773 19.7333 19.8494 19.7502 19.5568 19.7502V3.08352ZM30.6116 14.1382C30.6116 8.0356 25.6595 3.08352 19.5568 3.08352V19.7502C16.4547 19.7502 13.9449 17.2403 13.9449 14.1382H30.6116ZM23.0558 6.58243C27.2313 6.58243 30.6116 9.96778 30.6116 14.1382H13.9449C13.9449 19.1671 18.0211 23.2491 23.0558 23.2491V6.58243ZM15.5 14.1382C15.5 9.96505 18.8826 6.58243 23.0558 6.58243V23.2491C28.0873 23.2491 32.1666 19.1698 32.1666 14.1382H15.5ZM18.3559 18.0133C16.7193 17.5075 15.5 15.9871 15.5 14.1382H32.1666C32.1666 8.44986 28.4032 3.67394 23.277 2.08971L18.3559 18.0133ZM14.3337 5.9741C14.3337 5.06559 14.7328 4.30884 15.285 3.81875L26.3479 16.2842C29.1807 13.7702 31.0003 10.0651 31.0003 5.9741H14.3337ZM21.8895 13.5299C17.7163 13.5299 14.3337 10.1473 14.3337 5.9741H31.0003C31.0003 0.94253 26.921 -3.13677 21.8895 -3.13677V13.5299ZM9.66844 1.30888C9.66844 8.05492 15.1434 13.5299 21.8895 13.5299V-3.13677C24.3482 -3.13677 26.3351 -1.14983 26.3351 1.30888H9.66844ZM17.2242 8.86467C13.0511 8.86467 9.66844 5.48206 9.66844 1.30888H26.3351C26.3351 -3.7227 22.2558 -7.80199 17.2242 -7.80199V8.86467ZM20.0948 6.35977C19.9045 7.76259 18.717 8.86467 17.2242 8.86467V-7.80199C10.228 -7.80199 4.48963 -2.5914 3.57936 4.11966L20.0948 6.35977ZM14.2172 12.2674C14.0142 12.9633 13.4069 13.4521 12.73 13.5251L10.9442 -3.04565C4.94271 -2.39888 -0.0856462 1.78399 -1.78235 7.59923L14.2172 12.2674ZM5.56119 18.1951C5.25174 18.1951 5.02828 18.1726 4.92969 18.1613C4.81888 18.1486 4.74749 18.136 4.72299 18.1315L7.71188 1.73507C7.29381 1.65886 6.49202 1.52845 5.56119 1.52845V18.1951ZM9.61808 14.1382C9.61808 16.3827 7.80569 18.1951 5.56119 18.1951V1.52845C-1.39906 1.52845 -7.04859 7.17798 -7.04859 14.1382H9.61808ZM2.06228 6.58243C6.23777 6.58243 9.61808 9.96777 9.61808 14.1382H-7.04859C-7.04859 19.1671 -2.9724 23.2491 2.06228 23.2491V6.58243ZM22.3327 -1.54694C23.5858 -1.35096 24.5502 -0.385993 24.7457 0.866806L8.27834 3.43665C9.20007 9.343 13.8507 13.9958 19.7575 14.9196L22.3327 -1.54694ZM22.1017 17.1711C25.7685 15.5694 28.4747 12.2387 29.2327 8.2376L12.8574 5.13504C13.1373 3.65787 14.1134 2.4731 15.4304 1.89782L22.1017 17.1711ZM12.3592 13.5224C11.7202 13.4417 11.1576 12.9982 10.9311 12.3731L26.601 6.69578C24.699 1.44593 20.0217 -2.30832 14.4492 -3.01268L12.3592 13.5224ZM14.9878 -6.04102C10.0303 -5.1187 6.144 -1.23196 5.21422 3.71583L21.5942 6.79392C21.2546 8.60124 19.8509 10.0069 18.0362 10.3445L14.9878 -6.04102ZM10.2265 9.69258C14.402 9.69258 17.7823 13.0779 17.7823 17.2484H1.11566C1.11566 22.2772 5.19185 26.3592 10.2265 26.3592V9.69258ZM24.2222 9.69258H10.2265V26.3592H24.2222V9.69258ZM16.6664 17.2484C16.6664 13.0752 20.049 9.69258 24.2222 9.69258V26.3592C29.2537 26.3592 33.3331 22.28 33.3331 17.2484H16.6664ZM24.2222 24.8042C20.049 24.8042 16.6664 21.4216 16.6664 17.2484H33.3331C33.3331 12.2168 29.2537 8.1375 24.2222 8.1375V24.8042ZM10.2265 24.8042H24.2222V8.1375H10.2265V24.8042ZM17.7823 17.2484C17.7823 21.4188 14.402 24.8042 10.2265 24.8042V8.1375C5.19185 8.1375 1.11566 12.2195 1.11566 17.2484H17.7823ZM12.5588 10.8589C7.52412 10.8589 3.44792 14.9409 3.44792 19.9698H20.1146C20.1146 24.1402 16.7343 27.5256 12.5588 27.5256V10.8589ZM23.0555 10.8589H12.5588V27.5256H23.0555V10.8589ZM32.1664 19.9698C32.1664 14.9382 28.0871 10.8589 23.0555 10.8589V27.5256C18.8824 27.5256 15.4997 24.1429 15.4997 19.9698H32.1664ZM23.0555 29.0806C28.0871 29.0806 32.1664 25.0013 32.1664 19.9698H15.4997C15.4997 15.7966 18.8824 12.414 23.0555 12.414V29.0806ZM12.5588 29.0806H23.0555V12.414H12.5588V29.0806ZM3.44792 19.9698C3.44792 24.9986 7.52411 29.0806 12.5588 29.0806V12.414C16.7343 12.414 20.1146 15.7993 20.1146 19.9698H3.44792ZM14.8915 30.2469H24.2219V13.5803H14.8915V30.2469ZM22.4473 22.6911C22.4473 26.8616 19.067 30.2469 14.8915 30.2469V13.5803C9.85683 13.5803 5.78063 17.6623 5.78063 22.6911H22.4473ZM14.8915 15.1353C19.067 15.1353 22.4473 18.5207 22.4473 22.6911H5.78063C5.78063 27.72 9.85682 31.802 14.8915 31.802V15.1353ZM24.2219 15.1353H14.8915V31.802H24.2219V15.1353ZM16.6661 22.6911C16.6661 18.518 20.0488 15.1353 24.2219 15.1353V31.802C29.2535 31.802 33.3328 27.7227 33.3328 22.6911H16.6661ZM24.2219 30.2469C20.0488 30.2469 16.6661 26.8643 16.6661 22.6911H33.3328C33.3328 17.6595 29.2535 13.5803 24.2219 13.5803V30.2469ZM0.8957 26.3592H7.89353V9.69258H0.8957V26.3592ZM-8.21517 17.2484C-8.21517 22.2772 -4.13898 26.3592 0.8957 26.3592V9.69258C5.0712 9.69258 8.4515 13.0779 8.4515 17.2484H-8.21517ZM0.8957 8.1375C-4.13898 8.1375 -8.21517 12.2195 -8.21517 17.2484H8.4515C8.4515 21.4188 5.0712 24.8042 0.8957 24.8042V8.1375ZM7.89353 8.1375H0.8957V24.8042H7.89353V8.1375ZM17.0044 17.2484C17.0044 12.2168 12.9251 8.1375 7.89353 8.1375V24.8042C3.72035 24.8042 0.337731 21.4215 0.337731 17.2484H17.0044ZM7.89353 26.3592C12.9251 26.3592 17.0044 22.2799 17.0044 17.2484H0.337731C0.337731 13.0752 3.72035 9.69258 7.89353 9.69258V26.3592ZM9.61808 19.9698C9.61808 24.1402 6.23777 27.5256 2.06228 27.5256V10.8589C-2.97239 10.8589 -7.04859 14.9409 -7.04859 19.9698H9.61808ZM2.06228 12.414C6.23778 12.414 9.61808 15.7993 9.61808 19.9698H-7.04859C-7.04859 24.9986 -2.9724 29.0806 2.06228 29.0806V12.414ZM10.2264 12.414H2.06228V29.0806H10.2264V12.414ZM2.67062 19.9698C2.67062 15.7966 6.05325 12.414 10.2264 12.414V29.0806C15.258 29.0806 19.3373 25.0013 19.3373 19.9698H2.67062ZM10.2264 27.5256C6.05326 27.5256 2.67062 24.1429 2.67062 19.9698H19.3373C19.3373 14.9382 15.258 10.8589 10.2264 10.8589V27.5256ZM2.06228 27.5256H10.2264V10.8589H2.06228V27.5256ZM12.5587 13.5803H0.8957V30.2469H12.5587V13.5803ZM21.6696 22.6911C21.6696 17.6596 17.5903 13.5803 12.5587 13.5803V30.2469C8.38558 30.2469 5.00295 26.8643 5.00295 22.6911H21.6696ZM12.5587 31.802C17.5903 31.802 21.6696 27.7227 21.6696 22.6911H5.00295C5.00295 18.518 8.38557 15.1353 12.5587 15.1353V31.802ZM0.8957 31.802H12.5587V15.1353H0.8957V31.802ZM-8.21517 22.6911C-8.21517 27.72 -4.13898 31.802 0.8957 31.802V15.1353C5.0712 15.1353 8.4515 18.5207 8.4515 22.6911H-8.21517ZM0.8957 13.5803C-4.13897 13.5803 -8.21517 17.6623 -8.21517 22.6911H8.4515C8.4515 26.8616 5.07119 30.2469 0.8957 30.2469V13.5803Z" fill="#F5F5F5" mask="url(#path-1-inside-1_2031_1717)"/>
</svg>
