<svg width="48" height="48" viewBox="0 0 48 48" fill="none" xmlns="http://www.w3.org/2000/svg">
<circle cx="24" cy="24" r="24" fill="#5DC6C2" fill-opacity="0.35"/>
<g clip-path="url(#clip0_2335_214)">
<path d="M35.977 14.1883C35.9561 13.9985 35.8913 13.8178 35.8172 13.6395C35.6344 13.2027 35.3543 12.8414 34.9839 12.5486C34.7478 12.3634 34.4862 12.2239 34.2038 12.1233C34.0626 12.073 33.9191 12.0295 33.764 12.0204C33.6621 12.0135 33.5557 12.0135 33.4538 11.9975H14.5464C14.5325 12.0044 14.5186 12.0044 14.5024 12.0044C14.5024 12.0044 14.4885 12.0044 14.4816 12.0044C14.3774 12.0044 14.2756 12.0112 14.1737 12.0273C13.8473 12.073 13.551 12.2011 13.2756 12.3703C12.9121 12.5921 12.6135 12.8825 12.389 13.2438C12.1413 13.6372 11.9955 14.0602 12.0001 14.5313C12.0024 14.8126 12.0117 15.0916 12.0186 15.3728C12.0233 15.5466 12.0302 15.7204 12.0395 15.8942C12.051 16.0955 12.0626 16.299 12.0742 16.5025C12.0834 16.6649 12.0904 16.825 12.0996 16.9873C12.1112 17.168 12.1205 17.3509 12.1321 17.5316C12.1413 17.6894 12.1506 17.8472 12.1598 18.005C12.1714 18.2085 12.183 18.4143 12.1946 18.6178C12.2038 18.7779 12.2108 18.938 12.22 19.0958C12.2293 19.2764 12.2408 19.4571 12.2524 19.64C12.2617 19.7978 12.2709 19.9556 12.2802 20.1134C12.2918 20.3169 12.3033 20.5227 12.3126 20.7263C12.3219 20.8863 12.3288 21.0464 12.3381 21.2065C12.3496 21.3849 12.3589 21.5632 12.3705 21.7439C12.3797 21.904 12.389 22.064 12.3983 22.2218C12.4098 22.4254 12.4214 22.6312 12.4307 22.8347C12.4399 22.9948 12.4469 23.1548 12.4561 23.3126C12.47 23.5619 12.4839 23.8112 12.5001 24.0604C12.5094 24.2205 12.5186 24.3806 12.5279 24.5384C12.5441 24.8196 12.558 25.0986 12.5742 25.3799C12.5788 25.4691 12.5834 25.5606 12.5881 25.6497C12.6043 25.8944 12.6182 26.1414 12.6321 26.3861C12.6413 26.5507 12.6506 26.7131 12.6598 26.8778C12.6691 27.079 12.683 27.2779 12.6922 27.4792C12.6992 27.6393 12.7084 27.7993 12.7177 27.9594C12.7293 28.1401 12.7408 28.3207 12.7501 28.5037C12.7594 28.666 12.7686 28.8261 12.7756 28.9885C12.7848 29.1897 12.801 29.3887 12.808 29.5899C12.8126 29.6837 12.8172 29.7774 12.8219 29.8712C12.8334 30.0518 12.8427 30.2325 12.8543 30.4154C12.8635 30.5687 12.8728 30.7242 12.8821 30.8774C12.8936 31.074 12.9029 31.2707 12.9145 31.4674C12.926 31.6366 12.9307 31.8058 12.9422 31.975C12.9561 32.2014 12.97 32.4278 12.9839 32.6519C13.0024 32.9332 13.014 33.2168 13.0302 33.4981C13.0487 33.8068 13.1182 34.0995 13.2408 34.383C13.3751 34.7009 13.5649 34.9822 13.808 35.2269C14.0094 35.4281 14.2385 35.5996 14.4978 35.7277C14.7455 35.8512 15.0024 35.9518 15.2825 35.9815C15.389 35.993 15.4978 35.9907 15.6043 36.0021H32.4145C32.4283 35.993 32.4446 35.9952 32.4608 35.9952H32.4723C32.5881 35.9907 32.7038 35.9907 32.8172 35.9678C33.1182 35.9106 33.3983 35.8009 33.6575 35.6431C33.9608 35.4601 34.2223 35.2314 34.4353 34.9479C34.6899 34.6072 34.8589 34.2321 34.9376 33.8159C34.9723 33.6353 34.9793 33.4523 34.9885 33.2671C34.9978 33.0636 35.0094 32.8577 35.0209 32.6542C35.0302 32.5056 35.0395 32.3547 35.0487 32.2037C35.0603 32.0231 35.0696 31.8424 35.0788 31.6595C35.0881 31.4857 35.0973 31.3119 35.1066 31.1404C35.1158 30.9528 35.1251 30.7653 35.1367 30.5801C35.1459 30.4177 35.1575 30.2577 35.1668 30.0953C35.176 29.9146 35.1876 29.734 35.1969 29.551C35.2061 29.3772 35.2154 29.2034 35.2246 29.0319C35.2339 28.849 35.2432 28.666 35.2547 28.4831C35.264 28.3207 35.2756 28.1607 35.2848 27.9983C35.2964 27.8131 35.3057 27.6278 35.3149 27.4426C35.3242 27.2688 35.3334 27.095 35.3427 26.9212C35.352 26.7428 35.3612 26.5645 35.3728 26.3838C35.3821 26.2169 35.3913 26.0476 35.4029 25.8807C35.4191 25.6406 35.4307 25.4028 35.4446 25.1627C35.4561 24.9751 35.4654 24.7853 35.4746 24.5955C35.4793 24.5132 35.4816 24.4309 35.4862 24.3508C35.4978 24.193 35.5094 24.0353 35.5163 23.8775C35.5233 23.7037 35.5371 23.5322 35.5441 23.3584C35.551 23.1686 35.5672 22.9765 35.5765 22.7867C35.5858 22.6106 35.5927 22.4322 35.6043 22.2561C35.6205 22.0206 35.6321 21.785 35.6459 21.5495C35.6575 21.3757 35.6645 21.2019 35.6737 21.0304C35.6853 20.8383 35.6946 20.6439 35.7061 20.4518C35.7154 20.2872 35.7223 20.1248 35.7339 19.9602C35.7501 19.7132 35.764 19.4662 35.7779 19.2193C35.7871 19.05 35.7941 18.8808 35.8057 18.7116C35.8219 18.4623 35.8334 18.2131 35.8473 17.9638C35.8566 17.7969 35.8658 17.6276 35.8774 17.4607C35.8936 17.2183 35.9029 16.9736 35.9191 16.7312C35.9307 16.5414 35.9376 16.3539 35.9492 16.1641C35.9538 16.0795 35.9584 15.9926 35.9631 15.908C35.9746 15.7593 35.9839 15.6107 35.9862 15.4597C35.9862 15.2699 35.9932 15.0824 36.0001 14.8926C36.0071 14.6571 36.0094 14.4215 35.9839 14.1883H35.977ZM31.1228 19.6812C31.0279 19.7772 30.9168 19.8527 30.8057 19.9259C29.9932 20.4541 29.1807 20.9824 28.3682 21.5106C28.2108 21.6112 28.058 21.721 27.8959 21.8148C27.5094 22.0435 27.095 22.0412 26.6737 21.9223C26.4631 21.8628 26.2686 21.769 26.0881 21.6478C25.889 21.5152 25.6807 21.4009 25.4608 21.3048C25.3936 21.2751 25.3936 21.2705 25.4399 21.2156C26.014 20.5616 26.5904 19.9122 27.1621 19.2558C27.3496 19.0409 27.3844 18.7916 27.2594 18.5332C27.058 18.1102 26.4885 18.021 26.1645 18.364C25.97 18.5698 25.7848 18.7893 25.5973 19.002C25.0325 19.6446 24.4654 20.2872 23.9006 20.9298C23.8728 20.9618 23.845 20.987 23.7987 20.9892C23.0788 21.0052 22.4145 21.2065 21.8033 21.5861C21.5302 21.7553 21.2316 21.8605 20.9098 21.8925C20.5418 21.9291 20.2084 21.8491 19.9029 21.6318C19.2108 21.1425 18.5117 20.6599 17.8149 20.1751C17.5441 19.9853 17.2709 19.7978 17.0024 19.6034C16.6552 19.3519 16.5024 18.9311 16.6066 18.5241C16.6552 18.3365 16.7663 18.1879 16.9075 18.0553C17.3265 17.6619 17.7779 17.3052 18.2594 16.9896C18.8381 16.6123 19.4469 16.299 20.0904 16.0475C20.9515 15.7113 21.8427 15.4941 22.764 15.3957C23.1436 15.3546 23.5256 15.3363 23.9793 15.334C24.5163 15.3408 25.1228 15.3889 25.7223 15.4941C26.4723 15.6267 27.1992 15.8371 27.9006 16.1298C28.7316 16.4751 29.5024 16.9233 30.2108 17.479C30.5279 17.7283 30.8265 18.0004 31.1135 18.2817C31.5441 18.7024 31.4839 19.2993 31.1135 19.6789L31.1228 19.6812Z" fill="#5DC6C2"/>
<path d="M35.9954 14.8928C35.9885 15.0803 35.9815 15.2701 35.9815 15.4599C35.9815 15.6086 35.9699 15.7572 35.9584 15.9081C35.9514 15.9928 35.9468 16.0797 35.9445 16.1643C35.9352 16.3541 35.926 16.5416 35.9144 16.7314C35.8982 16.9738 35.8889 17.2185 35.8727 17.4609C35.8611 17.6278 35.8542 17.797 35.8426 17.964C35.8264 18.2132 35.8149 18.4625 35.801 18.7118C35.7894 18.881 35.7824 19.0502 35.7732 19.2194C35.7593 19.4664 35.7454 19.7134 35.7292 19.9604C35.7176 20.125 35.7107 20.2874 35.7014 20.452C35.6922 20.6441 35.6806 20.8385 35.669 21.0306C35.6598 21.2044 35.6528 21.3782 35.6412 21.5497C35.6273 21.7852 35.6135 22.0208 35.5996 22.2563C35.588 22.4324 35.5811 22.6108 35.5718 22.7869C35.5625 22.9789 35.5486 23.1687 35.5394 23.3586C35.5324 23.5323 35.5186 23.7061 35.5116 23.8777C35.5047 24.0354 35.4931 24.1932 35.4815 24.351C35.4746 24.4333 35.4723 24.5157 35.4699 24.5957C35.4607 24.7855 35.4537 24.973 35.4399 25.1628C35.426 25.403 35.4144 25.6431 35.3982 25.8809C35.3866 26.0478 35.3797 26.2171 35.3681 26.384C35.3565 26.5624 35.3473 26.743 35.338 26.9214C35.3287 27.0952 35.3195 27.269 35.3102 27.4428C35.301 27.628 35.2894 27.8132 35.2801 27.9985C35.2709 28.1608 35.2616 28.3209 35.25 28.4833C35.2385 28.6662 35.2292 28.8492 35.2199 29.0321C35.2107 29.2059 35.2014 29.3797 35.1922 29.5512C35.1829 29.7319 35.1713 29.9148 35.1621 30.0955C35.1528 30.2578 35.1436 30.4179 35.132 30.5803C35.1204 30.7678 35.1111 30.953 35.1019 31.1405C35.0926 31.3143 35.0834 31.4881 35.0741 31.6596C35.0649 31.8403 35.0533 32.0233 35.044 32.2039C35.0348 32.3548 35.0255 32.5035 35.0162 32.6544C35.0024 32.8579 34.9931 33.0637 34.9838 33.2673C34.9746 33.4502 34.9676 33.6354 34.9329 33.8161C34.8542 34.2323 34.6852 34.6073 34.4306 34.9481C34.2176 35.2316 33.9561 35.4603 33.6528 35.6433C33.3936 35.801 33.1135 35.9108 32.8125 35.968C32.6991 35.9886 32.5834 35.9909 32.4676 35.9954H32.4561C32.5255 35.9863 32.5973 35.9794 32.6667 35.9657C33.4885 35.8239 34.1227 35.4031 34.5579 34.7011C34.7871 34.3329 34.9098 33.9259 34.9352 33.4937C34.9699 32.9037 35.0047 32.3114 35.0371 31.7214C35.0741 31.0536 35.1111 30.3882 35.1482 29.7204C35.1852 29.0596 35.2246 28.3987 35.2616 27.7378C35.2986 27.0723 35.3357 26.4091 35.3727 25.7437C35.4098 25.0668 35.4491 24.3922 35.4885 23.7153C35.5255 23.0498 35.5625 22.3867 35.5996 21.7212C35.6482 20.8682 35.6945 20.0175 35.7431 19.1646C35.7848 18.4259 35.8287 17.6873 35.8681 16.9486C35.9051 16.2809 35.9375 15.6109 35.9815 14.9431C36.007 14.5704 35.9815 14.2045 35.8611 13.85C35.632 13.1754 35.2037 12.6655 34.5718 12.3224C34.2408 12.1441 33.8866 12.0434 33.5116 12.0114C33.4931 12.0114 33.4723 12.0046 33.4537 12C33.5556 12.0137 33.6621 12.016 33.7639 12.0229C33.9167 12.032 34.0625 12.0755 34.2037 12.1258C34.4861 12.2241 34.75 12.3659 34.9838 12.5511C35.3565 12.8438 35.6366 13.2051 35.8172 13.6419C35.8912 13.818 35.9561 13.9987 35.9769 14.1908C36.0024 14.424 36 14.6596 35.9931 14.8951L35.9954 14.8928Z" fill="#5DC6C2"/>
<path d="M15.602 36C15.4955 35.9909 15.3867 35.9909 15.2802 35.9794C15.0001 35.9474 14.7455 35.8468 14.4955 35.7256C14.2385 35.5975 14.0094 35.426 13.8057 35.2248C13.5603 34.9801 13.3728 34.6988 13.2385 34.381C13.1182 34.0974 13.0464 33.8024 13.0279 33.496C13.0117 33.2147 13.0001 32.9311 12.9816 32.6498C12.9677 32.4234 12.9538 32.1971 12.9399 31.9729C12.9283 31.8037 12.9237 31.6345 12.9121 31.4653C12.9006 31.2686 12.8913 31.0719 12.8797 30.8753C12.8705 30.7221 12.8612 30.5688 12.852 30.4133C12.8404 30.2327 12.8311 30.0497 12.8196 29.8691C12.8126 29.7753 12.808 29.6816 12.8057 29.5878C12.7964 29.3866 12.7825 29.1876 12.7733 28.9864C12.7663 28.824 12.7571 28.6639 12.7478 28.5016C12.7362 28.3209 12.727 28.138 12.7154 27.9573C12.7061 27.7972 12.6969 27.6372 12.6899 27.4771C12.6807 27.2759 12.6668 27.0769 12.6575 26.8757C12.6483 26.7133 12.6413 26.5486 12.6297 26.384C12.6158 26.1393 12.602 25.8923 12.5858 25.6476C12.5788 25.5585 12.5765 25.467 12.5719 25.3778C12.558 25.0965 12.5418 24.8175 12.5256 24.5363C12.5163 24.3762 12.5094 24.2161 12.4978 24.0583C12.4816 23.8091 12.4677 23.5598 12.4538 23.3105C12.4446 23.1505 12.4353 22.9904 12.4283 22.8326C12.4168 22.6291 12.4052 22.4233 12.3959 22.2197C12.3867 22.0597 12.3774 21.8996 12.3682 21.7418C12.3589 21.5634 12.3473 21.3828 12.3358 21.2044C12.3265 21.0443 12.3172 20.8842 12.3103 20.7242C12.2987 20.5206 12.2871 20.3148 12.2779 20.1113C12.2686 19.9535 12.2594 19.7957 12.2501 19.6379C12.2408 19.4573 12.2293 19.2766 12.2177 19.0937C12.2084 18.9336 12.1992 18.7735 12.1922 18.6157C12.1807 18.4122 12.1691 18.2064 12.1575 18.0029C12.1483 17.8451 12.139 17.6873 12.1297 17.5295C12.1205 17.3488 12.1089 17.1682 12.0973 16.9852C12.0881 16.8229 12.0788 16.6628 12.0719 16.5004C12.0603 16.2992 12.051 16.0957 12.0371 15.8921C12.0279 15.7183 12.0186 15.5445 12.0163 15.3708C12.0117 15.0918 12.0024 14.8105 12.0001 14.5315C11.9955 14.0627 12.1413 13.6374 12.389 13.244C12.6135 12.8827 12.9121 12.5923 13.2756 12.3705C13.551 12.2012 13.8473 12.0732 14.1737 12.0274C14.2756 12.0137 14.3774 12.0069 14.4816 12.0046C14.4885 12.0046 14.4955 12.0046 14.5024 12.0046C14.4029 12.0183 14.301 12.0252 14.1992 12.0457C13.4052 12.2104 12.7941 12.6334 12.3774 13.3195C12.0858 13.802 11.9746 14.328 12.0117 14.8882C12.0418 15.3182 12.0626 15.7504 12.0881 16.1803C12.1228 16.7817 12.1552 17.3809 12.1876 17.9823C12.2246 18.65 12.2617 19.3155 12.301 19.9832C12.3427 20.7379 12.3867 21.4925 12.4283 22.2472C12.4654 22.9012 12.5001 23.5575 12.5371 24.2115C12.5788 24.9616 12.6228 25.714 12.6645 26.464C12.7015 27.1181 12.7362 27.7698 12.7733 28.4238C12.8149 29.1785 12.8589 29.9331 12.9006 30.6878C12.9376 31.3464 12.9723 32.005 13.0117 32.6636C13.0325 33.0226 13.0302 33.3839 13.0858 33.7384C13.1922 34.4153 13.5163 34.9732 14.0557 35.4054C14.4885 35.7553 14.9908 35.9474 15.5464 35.9909C15.5649 35.9909 15.5811 35.9977 15.5996 36H15.602Z" fill="#5DC6C2"/>
</g>
<defs>
<clipPath id="clip0_2335_214">
<rect width="24" height="24" fill="white" transform="translate(12 12)"/>
</clipPath>
</defs>
</svg>
